<?xml version="1.0" encoding="utf-8"?>
<!-- Generator: Adobe Illustrator 23.1.1, SVG Export Plug-In . SVG Version: 6.00 Build 0)  -->
<svg version="1.1" id="Layer_1" xmlns="http://www.w3.org/2000/svg" xmlns:xlink="http://www.w3.org/1999/xlink" x="0px" y="0px"
	 viewBox="0 0 731 138.5" style="enable-background:new 0 0 731 138.5;" xml:space="preserve">
<style type="text/css">
	.st0{opacity:0.2;}
	.st1{fill:#FEFFFF;}
	.st2{fill:#FFFFFF;}
	.st3{fill:#BACED9;}
	.st4{fill:#A9C6D9;}
	.st5{fill:#6490A7;}
	.st6{fill:#97B2C1;}
	.st7{fill:#88B3CD;}
	.st8{fill:#8FADBC;}
	.st9{fill:#7C9EB1;}
	.st10{fill:#AEC9DB;}
	.st11{fill:#7EA2B5;}
	.st12{fill:#D0E2EF;}
	.st13{fill:#B4D1E3;}
	.st14{fill:#BFD8E7;}
	.st15{fill:#D6E6F1;}
	.st16{fill:#AECDE0;}
	.st17{fill:#BAD4E5;}
	.st18{fill:#DFEBF4;}
	.st19{fill:#598AA2;}
	.st20{fill:#97B0BE;}
	.st21{fill:#709AB0;}
	.st22{fill:#6895AC;}
</style>
<g class="st0">
	<path class="st1" d="M576.1,50.5c0.2-0.2,0.3-0.3,0.5-0.5c0.2-0.2,0.5-0.4,0.7-0.6c0.8-0.7,1.6-1.4,2.3-2c1.3-1.4,2.6-2.9,2.9-4.9
		c0.3-1.6,0.3-3.2,0.4-4.7c-0.1,0-0.1,0-0.2,0c-1.1,2.5-2.8,4.6-4.8,6.5c-1.5,1.4-2.9,2.8-4.3,4.3c-1.1,1.2-2,2.5-2.5,4.1
		c-0.2,0.7-0.3,1.5-0.4,2.2c-0.1,1.1-0.1,2.1-0.2,3.2c-0.1,1.6-0.8,2.9-1.8,4c-1,1.1-2.1,2.1-3.2,3.1c-1,0.9-2.1,1.6-3,2.6
		c-4.1,4.2-8.9,7.8-13.7,11.1c-1.6,1.1-3.4,1.9-5.2,2.6c-2.6,0.9-5.2,2-7.8,3c-1.2,0.5-2.1,1.3-2.9,2.2c-0.3,0.4-0.5,0.9-0.7,1.3
		c0.5,0.4,1,0.4,1.5,0c0.4,0,0.8,0,1.3,0c0.1,0,0.2,0,0.3,0c0.7,0.1,1.3,0.1,2,0.1c0.8,0,1.6-0.1,2.3-0.1c0.1,0,0.2,0,0.3,0
		c1.8,0.1,3.5-0.4,5.2-0.8c3.4-0.9,6.9-0.9,10.4-0.5c1,0.1,1.9,0,2.9,0c0.1-0.1,0.2-0.1,0.3-0.2c2.4-0.2,4.1-1.5,4.8-3.7
		c0.6-2,1-4,1.6-6c0.8-3,2-5.7,4.4-7.8c1.1-1,2.2-1.9,3.2-2.9c1-1,1.7-2.1,2-3.5c0.1-0.3,0.1-0.6,0.2-0.9c0.1-2.1-0.3-4.2-0.7-6.3
		c0.2-1.5,0.5-2.9,1.4-4.2C575.7,51,575.9,50.7,576.1,50.5z"/>
	<path class="st2" d="M731,65.5c0-21.8,0-43.7,0-65.5c-0.3,0-0.5,0-0.8,0c0,2.5-0.1,5,0.1,7.5c0.1,1.9-0.4,3.4-1.4,5
		c-5.3,8-10.5,16-16.8,23.2c-1.7,2-3.4,4-5.5,5.6c-2,1.6-4,3.3-6,4.9c-1.2,1-2.4,2-3.6,3c-0.3,0.3-0.6,0.6-0.9,0.9
		c-2.4,2.3-4.9,4.6-7.3,6.9c-0.9,0.8-1.8,1.7-2.8,2.4c-2.7,1.9-5.4,3.8-8.2,5.6c-2.6,1.7-5.1,3.5-7.2,5.8c-0.1,0.7,0.5,0.8,0.9,1.1
		c2.6,1.3,5.1,2.6,7.7,3.9c2.1,1,4.3,2,6.4,3c0.2,0.1,0.4,0.3,0.6,0.4c0.4,0.2,0.8,0.4,1.2,0.6c0.2,0.1,0.4,0.3,0.6,0.4
		c1.3,0.8,2.7,1.6,4,2.4c0.1,0.1,0.2,0.1,0.3,0.2c0,0,0,0,0,0c2.1,1.1,4.2,2.2,6.4,3.3c0.1,0,0.2,0,0.2,0c0.5,0.1,0.9,0.2,1,0.7
		c2.6,0.9,5.2,1.8,7.8,2.8c5.1,1.9,10.2,3.9,15,6.6c2.4,1.4,4.6,3,6.6,4.9c0.3-0.5,0.7,0,1,0c0-0.5,0-1,0-1.5c0-10.8,0-21.7,0-32.5
		c0-0.6,0-1.1,0.1-1.7c0.1,0,0.1,0,0.2,0C730.6,65.5,730.8,65.5,731,65.5z"/>
	<path class="st3" d="M20.9,29.4c-1.3-1-2.7-1.8-4-2.9c-2.9-2.5-5.1-5.6-6.8-9.1c-1.8-3.8-3.4-7.7-5-11.6c-0.7-1.5-1.3-3-1.9-4.5
		C3,0.8,2.9,0.4,2.8,0C1.9,0,0.9,0,0,0c0,19,0,38.1,0,57.1c1.4-2,3-3.7,4.9-5.3c2.3-2,4.1-4.3,5.7-6.8c2.3-3.9,4.7-7.8,7.1-11.6
		c0.7-1.1,1.5-2.1,2.2-3.1C20.2,29.9,20.6,29.7,20.9,29.4z"/>
	<path class="st4" d="M730.3,65.6c0,0.6-0.1,1.1-0.1,1.7c0,10.8,0,21.7,0,32.5c0,0.5,0,1,0,1.5c0,0.3,0,0.7,0,1c0,0,0,0,0,0
		c0.2,0,0.5,0,0.7,0c0-12.2,0-24.5,0-36.7c-0.2,0-0.3,0-0.5,0C730.4,65.5,730.4,65.6,730.3,65.6z"/>
	<path class="st3" d="M731,102.3c-0.2,0-0.5,0-0.7,0c0,0,0,0.1,0,0.1c0.3,0,0.5,0.1,0.8,0.1C731,102.4,731,102.3,731,102.3z"/>
	<path class="st3" d="M730.2,104.2c0.2,1.8-0.6,3-2.1,3.9c-1.2,0.7-2.3,1.4-3.5,2.1c-1.1,0.7-1.9,1.6-2.1,2.9
		c-0.2,1.2,0,2.5,0.7,3.6c0.6,0.9,1.2,1.8,1.8,2.6c1.1,1.4,2.3,2.7,3.5,4c0.6,0.7,0.5,1-0.3,1.5c-2.1,1.1-4.4,1.6-6.7,1.8
		c-1.9,0.2-3.7,0.3-5.6,0.6c-2.7,0.3-5.2,1.1-7.8,1.9c-3.9,1.1-7.8,2-11.7,2.9c-2.8,0.6-5.6,1.1-8.3,2.3c-2.4,1-4.7,2.1-7.1,3.1
		c-3.9,1.7-7.7,1.7-11.6,0.1c-1.9-0.8-3.7-1.6-5.6-2.5c-4.4-2.2-9-4.1-13.6-5.8c-4.9-1.8-9.8-3.4-14.7-5c-3.3-1.1-6.7-2.1-10.1-3.1
		c-4.6-1.4-9.3-2.6-13.9-4c-3.8-1.1-7.6-2.2-11.4-3.3c-3.4-1-6.8-2.1-10.2-3.3c-1.4-0.5-2.7-1.2-3.9-2.1c-1.6-1.3-2.4-3.1-0.8-5.1
		c0.4-0.6,0.8-1.2,1.3-1.7c1.7-2.1,1.9-4.3,0.8-6.7c-1-2.4-2-4.8-2.6-7.3c-0.6-2.4-0.2-4.6,1.4-6.6c1.7-2.2,3.7-4.1,5.9-5.8
		c2.2-1.7,4.5-3.2,6.4-5.2c1.3-1.4,2.6-2.9,2.9-4.9c0.2-1.4,0.1-2.9,0.1-4.3c-0.1-1.4-0.3-2.8-0.4-4.2c-0.1-1.9,0.8-3.3,2.4-4.4
		c0.7-0.4,1.4-0.7,2.2-1c1.4-0.6,1.9-1.2,1.9-2.7c0-2.9-1-5.7-2.2-8.3c-2-4-4.2-8-6.3-11.9c-1.5-2.7-2.7-5.5-3.5-8.4
		c-0.3-1.3-0.8-2.6-1.2-3.8c0.9-1.1,1-1.2,1.8-0.8c1.9,0.9,3.7,1.7,5.6,2.6c0.1,0.1,0.2,0.2,0.4,0.3c3.5,1.9,6.6,4.4,9.5,7.1
		c1.3,1.2,2.6,2.5,3.9,3.8c0.7,0.9,1.5,1.7,2.2,2.6c1.2,1.8,2.7,3.4,4.2,4.9c0.9,0.9,1.8,1.7,2.7,2.5c1.5,1.3,3.1,2.5,4.7,3.8
		c0.6,0.4,1.1,0.9,1.7,1.3c0.9,0.6,1.9,1.2,2.8,1.8c0.3,0.3,0.6,0.6,1,0.8c3.1,2,6.2,4,9.3,6c1.5,1,2.9,2,4.4,3
		c2.2,1.7,4.4,3.4,6.7,5.1c0.5,0.8,0.8,1.7,1.4,2.3c1.5,1.7,3,3.3,4.6,4.9c1,1,2.2,1.9,3.2,2.8c0.5,0.4,1,0.9,1.5,1.4
		c0.9,1,0.9,1.5,0.1,2.6c-0.1,0.1-0.2,0.3-0.4,0.5c0.8,0.6,1.6,1.3,2.4,1.8c1.3,0.9,2.7,1.8,4,2.6c1.5,0.9,3.1,1.1,4.8,1.2
		c1.6,0.1,3.1,0.3,4.5,1.1c1.8,0.9,2.3,2.5,1.2,4.2c-0.8,1.3-0.5,1.9,0.7,2.5c2,1.1,4.1,1.9,6.4,2.5c1.6,0.4,3.2,1,4.8,1.5
		c0,0,0,0.1,0.1,0.1c0,0,0-0.1-0.1-0.1c-0.1-0.8-0.7-1.1-1.2-1.5c-1.6-1.2-2-2.7-1.1-4.5c2.3,0,4.6,0.1,6.9,0.1c0.3,0,0.7,0,1,0
		c2.6,0.9,5.2,1.8,7.8,2.8c5.1,1.9,10.2,3.9,15,6.6c2.4,1.4,4.6,3,6.6,4.9c0.2,0.5,0.4,1,1.1,1c0,0,0,0,0,0c0,0,0,0.1,0,0.1
		C730.2,103,730.2,103.6,730.2,104.2z M707,91.8c0.6,0.5,1.1,1,1.7,1.5c0.8,0.6,1.6,1.2,2.3,1.9c0.3,0.3,0.6,0.8,0.7,1.3
		c0.3,0.8,0,1.3-0.7,1.8c-0.2,0.1-0.4,0.3-0.7,0.4c0.4,1.7,1.4,2.8,2.8,3.6c0.2,0.1,0.7,0.1,0.8,0c0.9-1.3,2.4-1.5,3.7-2.1
		c0.1,0,0.1-0.1,0.2-0.2c-1-1.6-1.9-3.4-3-4.9c-0.7-1-1.7-1.7-3-1.5c-1.3,0.2-2.3-0.7-3.4-1.2C708,92.2,707.5,92,707,91.8
		c-0.1-0.1-0.2-0.2-0.3-0.3c-0.1-0.1-0.2-0.1-0.3-0.2c0.1,0.1,0.2,0.1,0.3,0.2C706.8,91.6,706.9,91.7,707,91.8z M600.2,22.6
		C600.3,22.6,600.2,22.6,600.2,22.6c0,0.1,0.1,0.1,0.1,0.1c0.2,0.3,0.3,0.6,0.5,0.9c1.8,1.9,3.2,4.1,4.4,6.4c2.1,3.9,3.6,8,5.3,12
		c1.4,3.3,3.1,6.4,4.7,9.6c0.7,1.3,1.7,2.3,2.5,3.5c-0.6,0.5-1.1,1-1.7,1.5c-1,1-1.5,2.2-1.5,3.6c-0.2,3.1,0.7,6,1.5,9
		c0.4,1.3,0.7,2.5,1,3.8c0.7,2.7,0.2,5.3-0.9,7.9c-0.5,1.1-0.8,2.3-0.8,3.4c0.1,2,1,3.8,2.7,5c2.6,1.9,5.1,3.7,7.7,5.6
		c0.8,0.6,1.6,1.4,2.2,2.2c2.1,2.6,4.1,5.4,6.3,8c1.7,2.1,4,3.6,6.5,4.5c2,0.8,4,1.4,6,2.1c3.9,1.2,7.4,3.3,10.7,5.7
		c3.1,2.2,6.3,4.4,9.5,6.6c0.5,0.4,1.2,0.6,2,1c0-0.9,0-1.6,0-2.2c0-2.2,0.9-3.7,2.9-4.7c1.4-0.7,2.9-1.1,4.4-1.1c3-0.1,6,0,9,0
		c2.1,0,4.2,0.3,6.3,0.2c2.4-0.2,4.9-0.1,7.3-0.7c2.3-0.6,4.5-1.6,6.4-3c0.9-0.7,1.7-1.4,2.6-2.1c0.1-0.1,0.2-0.3,0.5-0.7
		c-1.1-0.1-2-0.3-2.9-0.3c-3.3,0-6.6,0-9.9,0c-2,0-3.8-0.4-5.7-1.1c-1.7-0.7-2.8-1.9-3.2-3.7c-0.4-1.9-1.3-3.6-2.6-4.9
		c-0.9-0.9-2.1-1.7-3.4-2.2c-2.2-0.9-4.6-1.5-6.9-2.1c-2.4-0.7-4.8-1.3-6.9-2.8c-1.2-0.9-2.4-1.9-3.5-2.9c-1.6-1.5-3.2-3-4.8-4.5
		c-2.2-2-3.6-4.4-4.6-7.1c-0.7-2-1.9-3.7-3.4-5.2c-2.4-2.6-5-4.8-7.7-7c-1.7-1.4-3.2-3-4.7-4.6c-0.7-0.8-1.1-1.8-1.5-2.8
		c-1.2-2.4-2.6-4.5-4.6-6.4c-1.2-1.1-2.5-2-4-2.7c-2.9-1.2-5.4-2.9-7.4-5.4c-2.6-3.1-4.7-6.5-7-9.8c-1.5-2.2-3-4.4-4.8-6.4
		c-1.3-1.5-2.7-2.8-4.3-3.9c-1.3-1-2.6-1.8-4.3-2.1C600.3,22.7,600.3,22.6,600.2,22.6z"/>
	<path class="st3" d="M74.2,18.6c-3.4-2.4-6.8-4.8-10.3-7.1c-2.7-1.7-5.5-3.2-8.2-4.8c-1-0.6-1.9-1.1-2.9-1.6
		C51.9,4.6,51,4.3,50,4.8c0.2,1.1,0.3,2.2,0.5,3.4c0.5,3.8,1.9,7.1,4.8,9.7c0.9,0.8,1.8,1.6,2.6,2.4c2.7,2.7,5.3,5.6,7.1,9.1
		c0.4,0.8,0.7,1.6,1,2.5c0.5,1.8-0.4,3.4-2.3,4.1c-1,0.4-2,0.6-3.1,0.8c-1.6,0.2-3.2,0.2-4.8,0.3c-0.2,0-0.3,0-0.4,0
		c1.1,2.3,2.2,4.6,3.4,7.1c-1.1,0-1.9,0-2.6,0c-1.3,0.1-2.6,0.2-3.8,0.7c-2.1,0.8-2.2,2.8-1.2,4.3c1.6,2.3,3.8,3.7,6.3,4.8
		c2.4,1.1,4.9,1.4,7.5,1.7c2.9,0.2,5.8,0.2,8.5,1.2c2.3,0.9,4.1,2.3,5.3,4.7c-0.4,0.1-0.8,0.3-1.1,0.4c-1.6,0.1-3.3,0.2-4.9,0.3
		c-2.1,0.2-4.1,0.3-6.2,0.6c-3.4,0.4-5.3,2.6-6.4,5.6c-0.8,2.2-1.2,4.4-1.3,6.7c-0.2,3.2,0.2,6.2,1.4,9.2c0.4,1,1.1,1.9,1.7,2.9
		c-0.8,0.3-1.7,0.5-2.6,0.5c-2.4,0.1-4.8,0.1-7.2,0.3c-2.5,0.2-4.9,0.5-7.1,1.8c-0.6,0.3-1.1,0.8-1.8,1.3c0.7,0.2,1.1,0.4,1.6,0.4
		c2.8,0.2,5.6,0.5,8.4,0.1c1.2-0.2,2.4-0.1,3.5-0.3c3.2-0.4,6.5-0.9,9.7-1.4c2.2-0.4,4.3-1,6.4-1.6c0.2-0.1,0.4-0.1,0.7-0.3
		c-0.2-0.3-0.3-0.5-0.5-0.7c-1.7-1.5-3.5-2.9-5.3-4.4c-1.3-1.1-2.6-2.2-3.9-3.3c-0.3-0.3-0.6-0.6-0.8-1c-1.2-1.6-0.9-3.1,0.9-4.2
		c1.9-1.1,3.9-1.8,6.1-2c3-0.4,6-0.8,9.1-0.8c0.7,0,1.4-0.1,2.1-0.2c0.1,0,0.2,0,0.3,0c3.5,0,7.1,0,10.6,0c0.4,0,0.8,0,1.1-0.1
		c-0.1-0.5-0.6-0.4-0.9-0.5c-1.6-0.4-3.2-0.7-4.8-1.2c-0.7-0.2-1.4-0.6-1.7-1.4c-0.1-0.4-0.2-0.8-0.1-1.2c0.2-0.4,0.6-0.2,1-0.1
		c3.3,0.7,6.5,0.5,9.4-1.5c0.9-0.6,2.1-1,3.2-1.2c1-0.2,2-0.2,3-0.3c0.5-0.1,1-0.2,1.6-0.4c-0.2-0.2-0.2-0.3-0.3-0.3
		c-3.2-2.2-6.4-4.4-9.6-6.7c-1.8-1.3-3.6-2.6-5.4-3.8c-0.8-0.6-1.7-1-2.5-1.6c-1.7-1.4-1.9-2.8-0.4-4.4c0.6-0.6,1.2-1.2,1.8-1.8
		c0.3-0.4,0.6-0.9,0.7-1.4c0.2-1.8-0.2-3.5-1.2-5c-1.3-1.9-2.7-3.7-4.1-5.4c-1.6-1.9-3.3-3.6-4.9-5.5c-1.2-1.4-2.3-2.9-3-4.7
		C74.2,21.5,73.7,20.1,74.2,18.6z"/>
	<path class="st3" d="M298.5,32.4c-0.1-0.1-0.2-0.1-0.3-0.2c-2-2.9-4-5.8-5.5-8.9c-1.4-3-2.9-5.9-4.8-8.6c-0.3-0.5-0.6-1-1.3-1.1
		c-0.2,1.6,0.4,3.1,0.7,4.6c1,4.5,2.1,9.1,3.2,13.6c0.7,3,1.9,5.8,3.1,8.6c2.1,4.9,4.3,9.7,5.9,14.8c0.8,2.8,1.4,5.7,1.4,8.6
		c0,2.5-0.6,5-2,7.1c-0.5,0.7-1.1,1.3-1.8,1.8c-1.4,1.1-1.7,2.3-0.8,3.9c0.5,0.8,1,1.5,1.5,2.2c1.2,1.6,1.6,3.4,1.7,5.4
		c0.1,1.4,0.2,2.9-0.1,4.3c-0.4,1.8-1.4,3.4-2.6,4.7c-1.5,1.7-3.4,3-5.2,4.3c-1.9,1.4-3.9,2.7-5.8,4.2c-1.5,1.1-2.7,2.5-3.7,4.2
		c-0.2,0.3-0.2,0.7-0.3,1.1l0,0c0.4-0.2,0.8-0.3,1.1-0.6c3.9-2.3,8.2-3.7,12.5-5.3c3.4-1.3,6.8-2.5,10.1-4c2.6-1.1,4.9-2.8,7.1-4.5
		c0.7-0.5,1.4-1.1,2.1-1.6c0.1-0.3,0.2-0.6,0.3-0.8c0.7-1,1.6-2,2.3-3c0.7-1,1.6-1.9,2.7-2.6c0.8-0.5,1.5-1.1,2.1-1.8
		c0.7-0.7,1.2-1.6,0.8-2.8c-0.1-0.3,0-0.6,0-1.1c0.6,0.1,1,0.2,1.4,0.2c2.4,0.2,3.2,0,3.8-2.4c0.6-2.4,0.1-4.7-0.1-7.1
		c-0.1-1.3-0.3-2.5-0.4-3.8c0-0.2,0.1-0.5,0.2-0.9c0.5,0.2,0.8,0.4,1.1,0.6c0.3,0.2,0.6,0.4,1,0.6c-0.1-0.2-0.1-0.4-0.2-0.5
		c-2.1-2.3-4-4.7-6.6-6.5c-1.1-0.8-2.1-1.6-3.2-2.5c-0.2-0.1-0.5-0.2-0.7-0.3c-1.5-1-3-2-4.5-3.1c-2.2-1.5-4.1-3.4-5.9-5.4
		c-0.9-0.9-1.5-2-2.3-3.1c-0.1-0.2-0.1-0.5-0.2-0.7c-0.4-0.4-0.8-0.7-1-1.1c-1.7-2.5-3.5-5-5.2-7.6
		C299.8,34.5,299.2,33.4,298.5,32.4z"/>
	<path class="st5" d="M139.1,31.9c-0.2,0-0.3,0-0.5,0c-0.2,0.1-0.3,0.2-0.5,0.2c-2.4,0.7-4.7,1.3-7.1,2c-4.8,1.6-9.6,3.4-14.4,5
		c-3.3,1.1-6.7,2.2-10,3.3c-0.9,0.3-1.7,0.7-2.6,1c1.6,1.8,3,3.7,4.7,5.5c2.1,2.3,4.4,4.5,6.7,6.7c2.1,2,4.3,4,6.6,5.8
		c3.7,2.9,7.6,5.3,12.2,6.5c1.5,0.4,3,0.9,4.6,0.5c3.4-1.2,6.5-3,9.6-4.9c5.4-3.3,10.4-7,15.3-11c0.7-0.6,1.6-1,2.3-1.5
		c-0.2-0.3-0.4-0.6-0.7-0.8c-3-2-5.6-4.4-8.4-6.8c-1.2-1-2.3-2-3.6-2.8c-1.4-0.9-2.9-1.6-4.4-2.3c-2.9-1.4-5.7-3-8.3-4.9
		C140.2,32.9,139.6,32.4,139.1,31.9z"/>
	<path class="st3" d="M216.9,31.6c-0.4-1-0.8-1.9-1.3-2.9c-1.3-2.5-2.7-5.1-4-7.6c-0.1-0.2-0.4-0.4-0.6-0.6
		c-0.3,0.5-0.8,0.9-0.9,1.4c-1.1,3.6-1.1,7.2-0.2,10.9c0.6,2.7,1.2,5.3,1.8,8c0.2,0.8,0.2,1.7,0.4,2.5c0.3,1.1,0.6,2.2,1,3.3
		c0.3,0.8,0.8,1.5,1.1,2.3c0.7,1.8,0.2,3.2-1.4,4.3c-0.7,0.5-1.5,1-2.3,1.4c-1.2,0.6-1.7,1.4-1.7,2.8c0.1,3.3,0.7,6.4,2.7,9.1
		c0.1,0.2,0.2,0.4,0.3,0.6c-0.9,1-2,1.5-3.1,2.1c-3.7,2-7.6,3.5-11.5,5.1c-3.5,1.4-7,2.8-10.3,4.7c-3.3,1.9-6.3,4.4-8.4,7.6
		c-0.3,0.4-0.4,0.8-0.6,1.2c0.1,0,0.2,0,0.3,0c1.1,0.4,2.2,0.1,3.3,0c0.2,0,0.4,0,0.5,0c2.6-0.1,5.2-0.5,7.8-1.1
		c4.5-1.2,8.9-2.4,13.3-3.8c4.7-1.4,9.3-2.8,14.2-3.5c3.5-0.5,7-0.4,10.5-0.1c5.9,0.5,11.6,2.1,17.4,3.3c2.8,0.6,5.6,1.1,8.5,1.4
		c2.9,0.3,5.8,0.2,8.8,0.3c0.2,0,0.5-0.2,0.7-0.2c-0.1-0.1-0.2-0.2-0.3-0.2c-3.4-0.7-6.7-1.7-10-3c-2.3-0.9-4.6-1.6-6.9-2.4
		c-1.9-0.7-3.5-1.7-4.8-3.2c-0.8-0.9-1.2-1.9-1.2-3.1c0-1.6,0.6-3.1,1.1-4.5c0.1-0.4,0.3-0.8,0.5-1.2c-0.8-0.3-1.5-0.4-2.2-0.7
		c-2.6-0.9-5.3-1.6-7.7-2.9c-2.3-1.2-4.1-3-5.1-5.4c-1.3-3.3-3-6.5-4.9-9.4c-1.2-1.9-2.2-3.9-2.7-6.1c-0.6-2.4-0.9-4.8-1.4-7.2
		C217.2,33.7,217,32.7,216.9,31.6z"/>
	<path class="st6" d="M138.8,68.4c-1.6,0.4-3.1-0.1-4.6-0.5c-4.6-1.2-8.6-3.6-12.2-6.5c-2.3-1.8-4.4-3.8-6.6-5.8
		c-2.3-2.2-4.5-4.4-6.7-6.7c-1.6-1.8-3.1-3.7-4.7-5.5c-0.2-0.1-0.4-0.2-0.5-0.4c-1.5-2-3.1-3.9-4.5-5.9c-1.9-2.7-4.1-5.1-7-6.9
		c-0.3-0.2-0.5-0.5-0.7-0.8c-0.6-0.2-1.2-0.4-1.7-0.8c-2.9-1.8-5.8-3.5-8.6-5.4c-1.9-1.3-3.7-2.8-5.5-4.2c-0.4-0.3-0.7-0.8-1.3-0.4
		c-0.6,1.5-0.1,2.9,0.5,4.3c0.7,1.7,1.8,3.3,3,4.7c1.6,1.9,3.3,3.6,4.9,5.5c1.5,1.8,2.9,3.6,4.1,5.4c1,1.5,1.4,3.2,1.2,5
		c-0.1,0.5-0.4,1-0.7,1.4c-0.5,0.7-1.2,1.2-1.8,1.8c-1.5,1.6-1.3,3.1,0.4,4.4c0.8,0.6,1.7,1,2.5,1.6c1.8,1.3,3.6,2.6,5.4,3.8
		c3.2,2.2,6.4,4.5,9.6,6.7c0.1,0,0.1,0.1,0.3,0.3c-0.6,0.1-1.1,0.3-1.6,0.4c-1,0.1-2,0.1-3,0.3c-1.1,0.3-2.2,0.6-3.2,1.2
		c-2.9,1.9-6.1,2.1-9.4,1.5c-0.4-0.1-0.8-0.3-1,0.1c-0.1,0.3-0.1,0.8,0.1,1.2c0.3,0.8,1,1.2,1.7,1.4c1.6,0.5,3.2,0.8,4.8,1.2
		c0.4,0.1,0.8-0.1,0.9,0.5c0.8,0,1.7,0.1,2.5,0.1c0.4,0.1,0.9,0.1,1.3,0.2c1.3,0.2,2.6,0.4,3.9,0.6c1.3,0.2,2.7,0.3,4,0.5
		c3.2,0,6.5,0,9.7,0c0.7,0,1.3,0,2-0.1c0.9-0.1,1.7-0.1,2.6-0.2c0.4,0,0.8,0,1.3,0c0.9-0.1,1.9-0.2,2.8-0.2c0.3,0,0.5,0,0.8,0
		c0.8-0.1,1.5-0.1,2.3-0.2c0.2,0,0.3,0,0.5,0c0.8-0.1,1.5-0.1,2.3-0.2c0.3,0,0.5,0,0.8,0c0.7-0.1,1.4-0.1,2.1-0.2c0.3,0,0.5,0,0.8,0
		c0.9-0.1,1.7-0.1,2.6-0.2c0.2,0,0.3,0,0.5,0c1.2-0.1,2.4-0.2,3.6-0.2c0.3,0,0.5,0,0.8,0c0.4-0.1,0.7-0.2,1.1-0.2c1,0,1.9,0,2.9,0
		c0.3,0,0.6-0.2,0.9-0.2c-1.7-0.5-3.4-1-5.1-1.5C139.3,68.8,139.1,68.5,138.8,68.4z"/>
	<path class="st7" d="M139.1,31.9c0.6,0.5,1.1,1,1.7,1.5c2.6,1.9,5.4,3.6,8.3,4.9c1.5,0.7,3,1.4,4.4,2.3c1.3,0.8,2.4,1.8,3.6,2.8
		c2.7,2.3,5.4,4.7,8.4,6.8c0.3,0.2,0.5,0.5,0.7,0.8c3.3-1.3,6.5-2.5,9.8-3.8c2.2-0.8,4.1-2,5.9-3.5c1.9-1.7,3.9-3.4,5.8-5.1
		c-0.6-0.6-1.2-1.2-1.8-1.8c-0.3-0.3-0.7-0.5-1-0.8c-2.8-2.7-5.7-5.4-9-7.6c-2.6-1.8-5.5-3.1-8.7-3.6c-3.2-0.5-6.3,0.2-9.4,0.9
		c-2.6,0.6-5.1,1.5-7.7,2.3c-3.4,1.1-6.7,2.3-10.1,3.5C139.7,31.5,139.4,31.7,139.1,31.9z"/>
	<path class="st8" d="M403.4,71.7c-1.2-1.2-2.5-2.4-3.7-3.7c-0.4-0.4-0.8-0.9-1.2-1.3c-1.8-1.8-3.7-3.6-5.4-5.5
		c-1.1-1.1-1.9-2.4-2.5-3.8c-0.3-0.4-0.5-0.8-0.8-1.2c-1.2-2.2-3.2-3.1-5.6-3.2c-0.6,0-1.1,0.1-1.5,0.6c-0.8,0.9-1.6,1.8-2.4,2.8
		c-1.1,1.5-2.5,2.4-4.4,2.3c-1.5-0.1-2.8-0.5-4.2-0.9c-2.1-0.7-4.1-1.4-6.1-2.1c-0.5-0.2-1-0.3-1.4-0.6c-1.5-0.9-2.9-1.9-4.3-2.9
		c-1-0.7-2.1-1.3-3.2-1.8c-1.2-0.6-2.4-0.7-3.7-0.2c-1.4,0.6-2.6,1.4-3.7,2.4c-1.5,1.4-2.9,2.9-4.4,4.3c-0.8,0.7-1.6,1.4-2.6,1.8
		c-1.3,0.7-2.6,0.9-4,0.1c-1.7-1-3.5-1.9-5.3-2.8c-0.7-0.4-1.6-0.6-2.4-0.9c0.2,0.2,0.3,0.5,0.5,0.7c0.8,0.7,1.7,1.3,2.5,1.9
		c3.7,2.9,7.8,5.3,12.2,7c3.9,1.5,7.9,2.8,11.8,4.2c0.2,0.1,0.3,0.3,0.5,0.5c2.4-0.2,4.7-0.9,7-1.7c1.8-0.7,3.5-1.6,5.1-2.7
		c1.3-0.9,2.7-1.9,4.4-2.3c0.4-0.1,0.7-0.1,1.1-0.2c0.1,0,0.2,0,0.3,0c0.2,0,0.3,0,0.5,0.1c1.1-0.9,2.2-0.4,3.4-0.3
		c0.7,0.1,1.2,0.4,1.5,1c0.4,0.4,0.8,0.7,1.2,1.1c1.8,1.7,3.5,3.3,5.3,5c0.8,0.8,1.6,1.7,2.5,2.5c0.8,0.7,1.7,1.3,2.5,1.9
		c0.7-0.1,1.5-0.2,2.2-0.3c2.3-0.4,4.5-0.9,6.8-1.4c0.4-0.1,0.8-0.1,1.2-0.1C403.4,71.8,403.4,71.8,403.4,71.7z"/>
	<path class="st6" d="M216.9,31.6c0.2,1,0.3,2.1,0.5,3.1c0.4,2.4,0.8,4.8,1.4,7.2c0.5,2.2,1.5,4.2,2.7,6.1c2,3,3.6,6.1,4.9,9.4
		c1,2.4,2.8,4.2,5.1,5.4c2.5,1.3,5.1,2,7.7,2.9c0.7,0.2,1.4,0.4,2.2,0.7c-0.2,0.5-0.4,0.8-0.5,1.2c-0.6,1.5-1.2,2.9-1.1,4.5
		c0,1.2,0.5,2.2,1.2,3.1c1.3,1.5,2.9,2.6,4.8,3.2c2.3,0.8,4.7,1.6,6.9,2.4c3.3,1.2,6.6,2.2,10,3c0.1,0,0.2,0.1,0.3,0.2
		c1.6,0,3.3,0,4.9,0c0-0.1,0.1-0.2,0.1-0.3c-0.7-0.3-1.3-0.7-2-0.9c-3.4-1.3-6.9-2.5-10.2-3.9c-2.5-1-4.9-2.2-6.9-4
		c-1.4-1.3-2.5-2.8-2.4-4.8c0.1-1.2,0.6-2.1,1.7-2.7c0.4-0.2,0.8-0.4,1.1-0.6c1.1-0.7,1.4-1.8,0.7-3c-0.4-0.6-0.8-1.2-1.3-1.7
		c-1.7-1.6-3.5-3.2-5.2-4.9c-0.7-0.7-1.4-1.6-1.9-2.5c-0.8-1.4-0.6-2.5,0.7-3.5c1-0.9,2.2-1.6,3.3-2.3c1-0.7,2-1.2,3-1.9
		c0.7-0.5,1.3-1.1,1.5-2c-1.6,0.2-2.9,1.1-4.3,1.8c-1.5,0.7-3,1.4-4.4,2c-0.7,0.3-1.3,0.6-2,0.8c-2.3,0.6-4.5,0.8-6.7-0.3
		c-2.3-1.2-4.4-2.9-6.2-4.8c-0.7-0.8-1.5-1.5-2.1-2.3c-1.9-2.6-3.8-5.2-5.5-7.8c-0.5-0.8-1.3-1.5-1.2-2.6
		C217.4,31.8,217.1,31.7,216.9,31.6z"/>
	<path class="st8" d="M496.5,53.1c-2.8-1.1-5.5-2.1-8.3-3.2c-1.9-0.7-3.9-1-5.8-1.1c-2.4-0.1-4.8,0.4-7,1.6
		c-3.1,1.7-6.2,3.5-9.3,5.2c-2.4,1.4-4.5,3.1-6.5,4.9c-2.1,2-4.2,4.1-6.2,6.2c-0.3,0.3-0.9,0.6-0.7,1.3c0.6,0,1.1,0.1,1.7,0.1
		c0.6,0,1.3-0.1,1.9,0c2.4,0.3,4.8,0.6,7.2,0.8c0.7-1.2,1.8-2.3,3.3-2.9c0.2-0.1,0.6-0.2,0.8-0.1c1,0.4,2.1,0.8,3,1.3
		c1.1,0.6,1.9,1.4,2.1,2.7c0.1,0.7,0.3,1.4,0.5,2.1c0.1,0.4,0.3,0.9,0.9,0.9c0-1.9,0.5-3.6,1.9-5c0-0.8,0.5-1.1,1.2-1.3
		c1.8-2.6,4.8-3.5,7.4-4.8c2.5-1.2,4.9-2.5,7.4-3.7c0-0.2,0-0.4,0.1-0.5c1.5-1.4,3-2.8,4.5-4.3C496.5,53.2,496.5,53.1,496.5,53.1z"
		/>
	<path class="st3" d="M583,37.8c-0.1,1.6-0.1,3.2-0.4,4.7c-0.3,2-1.6,3.5-2.9,4.9c-0.1-0.1-0.2-0.4-0.3-0.4c-2.4,0-3.7,0.9-4.6,3.2
		c-0.5,1.4-1.6,2.3-2.7,3.3c0.5,0.8,0.9,1.8,2,1.8c0.4,2.1,0.8,4.1,0.7,6.3c0,0.3-0.1,0.6-0.2,0.9c-0.3,1.4-1.1,2.5-2,3.5
		c-1,1-2.1,2-3.2,2.9c-2.4,2.1-3.6,4.8-4.4,7.8c-0.5,2-0.9,4-1.6,6c-0.7,2.3-2.4,3.5-4.8,3.7c-0.1,0.1-0.2,0.1-0.3,0.2
		c-1,0-2,0.1-2.9,0c-3.5-0.4-7-0.4-10.4,0.5c-1.7,0.4-3.4,0.9-5.2,0.8c-0.1,0-0.2,0-0.3,0c-0.8,0.1-1.6,0.1-2.3,0.1
		c-0.7,0-1.3-0.1-2-0.1c-0.1,0-0.2,0-0.3,0c-0.4,0-0.8,0-1.3,0c-0.5,0-1,0-1.5,0c0.2-0.4,0.4-0.9,0.7-1.3c0.8-1,1.7-1.8,2.9-2.2
		c2.6-1,5.2-2.1,7.8-3c1.8-0.7,3.6-1.5,5.2-2.6c4.9-3.3,9.6-6.9,13.7-11.1c0.9-0.9,2-1.7,3-2.6c1.1-1,2.2-2,3.2-3.1
		c1-1.1,1.7-2.4,1.8-4c0.1-1.1,0.1-2.1,0.2-3.2c0.1-0.8,0.2-1.5,0.4-2.2c0.4-1.6,1.4-2.9,2.5-4.1c1.4-1.5,2.9-2.9,4.3-4.3
		c2-1.9,3.7-4,4.8-6.5C582.8,37.8,582.9,37.8,583,37.8z M559.7,80.3c-1.1,0.6-2.3,1.4-3.6,1.5c-1.3,0.1-2.7,0.4-4,0.2
		c-1.3-0.2-2.2,0.1-3.2,0.8c-0.4,0.3-0.8,0.7-1.1,1.2c0.3,0,0.5,0,0.8-0.1c0.5,0,1.1-0.2,1.6-0.1c2.1,0.3,4.2,0.8,6.3,1.1
		c1,0.2,2.1,0.2,3.2,0.1c1.4-0.2,2.4-1.2,2.9-2.5c0.4-1,0.6-2,0.9-3.2C561.9,79.2,560.8,79.7,559.7,80.3z"/>
	<path class="st3" d="M381.7,63.2c-0.3-0.6-0.8-0.9-1.5-1c-1.2-0.1-2.3-0.6-3.4,0.3c-0.1,0.7-0.2,1.3-0.2,2c0,0.8,0.1,1.6,0.3,2.4
		c0.3,1,0.2,1.9-0.1,2.9c-0.8,3.2-2.3,6.1-4.4,8.6c-0.7,0.9-1.9,1.5-2.8,2.2c-0.8,0.7-1.6,1.3-2.4,2c-0.5,0.5-0.7,1.1-0.4,1.8
		c0.5,1.5,0.3,1.9-1.2,2.5c-0.6,0.2-1.1,0.6-1.5,1.1c-2.5,2.5-5.2,4.9-8.2,6.8c0.2,0.1,0.3,0.2,0.5,0.3c2.6-1,5.3-2,7.9-3.1
		c4.2-1.7,8.5-3.5,13-4.4c0.9-0.2,1.9-0.4,2.8-0.7c0.1-0.2,0.2-0.3,0.4-0.5c0.6-0.6,1.3-1.2,1.9-1.9c0.9-1,1.7-1.9,2.9-2.5
		c1.2-0.6,2.1-1.6,2.3-3c0.2-1.2,0.9-2,2.1-2.2c0.3,0,0.5-0.2,0.8-0.2c-0.1-0.5-0.2-0.9-0.3-1.3c-0.4-1.7-1.2-3.1-2.7-4
		c-0.2-0.1-0.4-0.3-0.6-0.5c-1.4-1.8-2.9-3.5-4.2-5.4C382.3,64.7,382.1,64,381.7,63.2z"/>
	<path class="st3" d="M474,72.9c-0.6,0-0.8-0.5-0.9-0.9c-0.2-0.7-0.4-1.4-0.5-2.1c-0.2-1.3-1-2.1-2.1-2.7c-1-0.5-2-0.9-3-1.3
		c-0.2-0.1-0.6,0-0.8,0.1c-1.5,0.6-2.6,1.7-3.3,2.9c-2.4-0.3-4.8-0.6-7.2-0.8c-0.6-0.1-1.3,0-1.9,0c0.3,0.4,0.6,0.8,0.9,1.2
		c1.7,2,3.5,3.9,5.1,5.9c0.7,0.9,1.3,2,1.9,2.9c-0.9,1.1-1.8,2-2.5,3.1c-0.7,0.9-1.3,1.9-1,3.2c1-0.1,2,0,2.9,0.6
		c-0.4,0.6-0.7,1.1-1,1.7c-0.5,0.8-1,1.5-1.8,2.1c-1,0.7-1.9,1.5-2.9,2.3c-0.1,0-0.2,0-0.3,0c0-0.3-0.1-0.6-0.1-0.9
		c-0.1,0.1-0.4,0.1-0.4,0.2c-1.2,1.8-1.8,3.7-1.6,5.9c0.1,0.7,0.1,1.3,0.2,2c0.2,0,0.3,0.1,0.3,0c1.8-1.6,3.6-3.1,5.3-4.7
		c1.3-1.2,2.5-2.5,3.4-4.1c1.1-2,2.9-3.2,5-3.8c2.4-0.7,4.8-1.2,7.3-1.8c1.4-0.3,2.8-0.5,4.2-0.8c0.4-0.1,0.8-0.3,1.2-0.4
		c-0.1-1.6-1-2.6-1.9-3.7c-1-1.1-2-2.2-3-3.3C475,74.9,474.2,74.1,474,72.9z"/>
	<path class="st4" d="M403.4,71.7c0,0.1,0,0.2,0,0.2c0.3,0.4,0.7,0.8,1,1.3c2.1,2,4.2,4.1,6.4,6.1c0.5,0.2,1,0.3,1.5,0.5
		c1.8-0.4,3.6-0.8,5.4-1.3c5.2-1.6,10.3-3.4,15.5-5c0.1,0,0.2-0.1,0.3-0.2c-0.2-0.4-0.4-0.9-0.7-1.3c-1.7-2.4-3.3-4.7-5-7
		c-2.2-2.9-4.9-5.1-8.1-6.8c-0.2-0.1-0.4-0.1-0.6-0.2c-1.1-0.4-1.3-0.3-1.7,0.8c-0.7,2.2-1.8,4.2-3.2,6c-1.4,1.7-3,3.1-4.8,4.3
		C407.5,70.1,405.4,70.9,403.4,71.7z"/>
	<path class="st9" d="M358.5,69.4c-0.2-0.2-0.3-0.4-0.5-0.5c-3.9-1.4-7.9-2.7-11.8-4.2c-4.4-1.7-8.5-4.1-12.2-7
		c-0.8-0.6-1.7-1.3-2.5-1.9c-0.2-0.2-0.3-0.4-0.5-0.7c-0.1,0-0.2-0.1-0.3-0.1c-0.2-0.1-0.4-0.2-0.5-0.2c-0.2-0.1-0.5-0.2-0.7-0.3
		c-1.5,0-2.9,0-4.4,0.5c-1.6,0.6-3.2,1.1-4.8,1.6c1.1,0.8,2.1,1.7,3.2,2.5c2.6,1.8,4.5,4.2,6.6,6.5c0.1,0.1,0.1,0.3,0.2,0.5
		c0,0,0,0,0,0c0.1,0.1,0.2,0.2,0.3,0.3l0,0c0.1,0.1,0.2,0.2,0.3,0.3c0,0,0,0,0,0c0.2,0.3,0.3,0.5,0.5,0.8c0,0,0,0,0,0
		c0.1,0.1,0.2,0.2,0.3,0.3c0,0,0,0,0,0c0.1,0,0.2,0,0.3,0c1.1,1.2,2.1,2.4,3.2,3.5c0.4,0.5,0.8,1,1.3,1.3c0.7,0.4,1.4,1.1,2.3,0.9
		c1.5-0.4,3-0.8,4.4-1.6c0.5-0.3,1-0.5,1.6-0.8c0.8-0.3,1.5-0.5,2.3-0.8c0.3-0.1,0.5-0.2,0.8-0.2c2,0,4.1,0,6.1,0c0.2,0,0.5,0,0.7,0
		c0.9-0.1,1.7-0.2,2.6-0.2C357.5,69.5,358,69.4,358.5,69.4z"/>
	<path class="st10" d="M252.5,26.2c-0.1-0.1-0.2-0.3-0.3-0.4c0,0-0.1,0-0.3-0.1c-0.4,0.3-1,0.7-1.5,1.1c-2.6,2.2-5.1,4.4-7.7,6.5
		c-0.6,0.4-1.2,0.9-1.8,1.3c0,0.1,0,0.2,0,0.2c0.4,0.3,0.8,0.5,1.3,0.8c1.9,1.2,3.8,2.4,5.6,3.7c1.8,1.3,3.6,2.6,5.4,4
		c0.7-0.3,1.3-0.5,2-0.9c2.3-1.3,4.9-2.4,6.9-4.2c0.8-0.8,1.7-1.5,2.5-2.3c-0.6-0.4-1.1-0.8-1.7-1.1"/>
	<path class="st6" d="M344.4,70.9c-0.5,0.3-1.1,0.5-1.6,0.8c-1.4,0.8-2.8,1.3-4.4,1.6c-0.9,0.2-1.6-0.4-2.3-0.9
		c-0.5-0.3-0.9-0.9-1.3-1.3c-1.1-1.2-2.1-2.4-3.2-3.5c-0.1,0-0.2,0-0.3,0c0,0,0,0,0,0c-0.1-0.1-0.2-0.2-0.3-0.3c0,0,0,0,0,0
		c-0.2-0.3-0.3-0.5-0.5-0.8c0,0,0,0,0,0c-0.1-0.1-0.2-0.2-0.3-0.3c0,0,0,0,0,0c-0.1-0.1-0.2-0.2-0.3-0.3c0,0,0,0,0,0
		c-0.3-0.2-0.6-0.4-1-0.6c-0.3-0.2-0.7-0.4-1.1-0.6c-0.1,0.4-0.2,0.7-0.2,0.9c0.1,1.3,0.3,2.5,0.4,3.8c0.1,2.3,0.6,4.7,0.1,7.1
		c-0.6,2.4-1.4,2.6-3.8,2.4c-0.4,0-0.9-0.1-1.4-0.2c0,0.5-0.1,0.8,0,1.1c0.4,1.1-0.1,2-0.8,2.8c-0.6,0.7-1.4,1.2-2.1,1.8
		c-1,0.7-1.9,1.6-2.7,2.6c-0.7,1-1.5,2-2.3,3c-0.2,0.2-0.2,0.5-0.3,0.8c1.1-0.6,2.4-1.2,3.4-1.9c1.9-1.3,3.8-2.6,5.9-3.8
		c1.5-0.8,2.9-1.9,4.4-2.8c2-1.2,3.9-2.5,6-3.6c3-1.7,6.2-3.2,8.9-5.4c0.8-0.6,1.5-1.3,2.3-2.1C345.2,71.1,344.8,71,344.4,70.9z"/>
	<path class="st6" d="M412.3,79.8c-0.5-0.2-1-0.3-1.5-0.5c-0.6,0.2-1.2,0.4-1.8,0.5c-0.9,0.1-1.8,0.1-2.6,0.3
		c-1.3,0.3-2.4,0.1-3.5-0.4c-0.9-0.3-1.5-0.9-2.2-1.4c-0.6-0.5-1.2-0.9-1.8-1.3c-2.1-0.7-3.8-2-5.6-3.3c-0.8-0.6-1.7-1.2-2.5-1.9
		c-0.9-0.8-1.7-1.7-2.5-2.5c-1.7-1.7-3.5-3.3-5.3-5c-0.4-0.4-0.8-0.7-1.2-1.1c0.4,0.7,0.6,1.5,1.1,2.1c1.4,1.8,2.8,3.6,4.2,5.4
		c0.2,0.2,0.3,0.4,0.6,0.5c1.5,0.9,2.3,2.3,2.7,4c0.1,0.4,0.2,0.8,0.3,1.3c-0.3,0.1-0.5,0.2-0.8,0.2c-1.2,0.2-2,1-2.1,2.2
		c-0.2,1.4-1,2.4-2.3,3c-1.2,0.6-2.1,1.5-2.9,2.5c-0.6,0.7-1.2,1.2-1.9,1.9c-0.1,0.1-0.3,0.3-0.4,0.5c1.3,0.1,2.5-0.1,3.6-0.5
		c4.1-1.5,8.3-2.2,12.5-3.2c4-1,8-1.8,12-2.7C409.6,80.2,411,80,412.3,79.8z"/>
	<path class="st7" d="M506,43.6c0,0.2,0,0.3,0,0.5c0,1.9,0,3.8,0,5.7c0,0.4-0.1,0.9,0.5,1c0.7-0.2,1.4-0.5,2-0.7
		c1.9-0.8,3.8-1,5.8-1.3c3-0.4,6-1,8.9-1.9c0.4-0.1,0.8-0.4,1.2-0.6c-1.3-1-2.6-2-4-3c-1.7-1.2-3.3-2.3-5.4-2.7
		c-2.4-0.5-4.5,0.1-6.5,1.4C507.7,42.4,506.8,43,506,43.6z"/>
	<path class="st3" d="M556.9,30.3c0.5,0.4,1,0.7,1.5,1.1c0.5,0.4,0.9,0.9,0.2,1.4c1,1.2,0.9,1.5-0.4,2.3c-0.6,0.4-1.2,0.9-1.8,1.3
		c-0.2,0.2-0.5,0.5-0.2,0.8c-1,0.7-2.1,1.5-3.1,2.2c-2.1,1.6-4.1,3.3-5.8,5.3c-1,1.1-2,2.2-3.1,3.2c-0.1,0.1-0.3,0.1-0.6,0.2
		c0.2-0.4,0.3-0.7,0.4-1c0.8-1.7,1.7-3.4,2.6-5.1c0.3-0.6,0.5-1.4,0.8-2c0.7-1.7,1.6-3.2,3-4.4c0.9-0.7,0.8-1,0.2-1.9
		c-0.2-0.2-0.3-0.5-0.5-0.7c0.3-0.3,0.6-0.5,0.9-0.7c0.7-0.5,0.8-0.8,0.3-1.5c-0.3-0.4-0.6-0.8-1-1.2c-0.7-0.7-1.5-1.4-2.2-2.2
		c-1-1.1-1.9-2.4-2.5-3.8c0.4,0.2,0.8,0.3,1.2,0.5c0.9,0.5,1.8,1,2.7,1.6c0,0,0,0,0,0c0.4,0.3,0.9,0.5,1.3,0.8
		c0.1,0.1,0.2,0.2,0.4,0.3c1.6,0.8,3.1,1.5,4.7,2.2C556.3,29.5,556.6,30,556.9,30.3z M548.6,39.8c0.7-0.3,1.4-0.7,1.9-1.4
		c-0.4-0.2-0.8-0.4-1.2-0.6C549,38.5,548.8,39.1,548.6,39.8c-0.1,0.1-0.2,0.3-0.3,0.5c0,0-0.1,0.1-0.1,0.1c0,0,0.1,0,0.1,0
		c0,0,0-0.1,0-0.1C548.4,40.1,548.5,40,548.6,39.8z"/>
	<path class="st9" d="M253.2,43.4c-1.8-1.3-3.6-2.7-5.4-4c-1.8-1.3-3.7-2.5-5.6-3.7c-0.2,1.8-0.4,3.7-0.5,5.5
		c-0.1,2.6-0.2,5.2-0.3,7.7c1.5-0.7,3-1.3,4.4-2c1.4-0.7,2.7-1.5,4.3-1.8c0.1,0,0.2-0.1,0.2-0.1c0.1-0.1,0.2-0.1,0.2-0.2
		C251.4,44.4,252.3,43.9,253.2,43.4z"/>
	<path class="st7" d="M575.1,29.8c-0.2-0.3-0.3-0.7-0.6-0.9c-1.3-1.4-2.7-2.7-4-4.1c0,0-0.1-0.1-0.1-0.1c-1.4-1.3-1.5-1.3-2.7,0.1
		c-1.8,2.2-3.6,4.5-5.3,6.7c0.5,0.2,0.9,0.5,1.4,0.5c1.2,0.1,2.4,0,3.6,0c0,0,0.1,0,0.1,0c0.1-0.1,0.2-0.1,0.3-0.2
		C570.3,31.7,572.7,30.8,575.1,29.8z"/>
	<path class="st4" d="M506.5,50.8c-0.6-0.1-0.5-0.6-0.5-1c0-1.9,0-3.8,0-5.7c-0.4,0.3-0.8,0.5-1.1,0.8c-2.4,2.4-4.9,4.8-7.3,7.3
		c-0.3,0.3-0.7,0.6-1,0.9c0,0.1,0,0.1,0,0.2c0.9,0.3,1.7,0.5,2.6,0.8c0.2-0.1,0.5-0.1,0.7-0.2C502.1,52.9,504.3,51.8,506.5,50.8z"/>
	<path class="st8" d="M567.3,32.1c-1.2,0-2.4,0.1-3.6,0c-0.5,0-0.9-0.3-1.4-0.5c-1.4-0.1-2.5-0.9-3.7-1.5c-0.8-0.5-1.7-0.9-2.7-1
		c0.3,0.4,0.6,0.9,1,1.2c0.5,0.4,1,0.7,1.5,1.1c0.5,0.4,0.9,0.9,0.2,1.4c1,1.2,0.9,1.5-0.4,2.3c-0.6,0.4-1.2,0.9-1.8,1.3
		c-0.2,0.2-0.5,0.5-0.2,0.8c1.6-1.1,3.2-2.2,4.8-3.3c0.7-0.5,1.3-0.7,2.1-0.5c0.8,0.2,1.5,0,2.2-0.3C566,32.8,566.7,32.4,567.3,32.1
		z"/>
	<path class="st8" d="M579.7,47.4c-0.1-0.1-0.2-0.4-0.3-0.4c-2.4,0-3.7,0.9-4.6,3.2c-0.5,1.4-1.6,2.3-2.7,3.3c0.5,0.8,0.9,1.8,2,1.8
		c0.2-1.5,0.5-2.9,1.4-4.2c0-0.4,0.1-0.7,0.5-0.7c0.2-0.2,0.3-0.3,0.5-0.5c0-0.5,0.3-0.5,0.7-0.6C578.1,48.8,578.9,48.1,579.7,47.4z
		"/>
	<path class="st8" d="M455.6,90.2c0,0.3,0.1,0.6,0.1,0.9c0.1,0,0.2,0,0.3,0c1-0.8,1.9-1.6,2.9-2.3c0.8-0.5,1.3-1.3,1.8-2.1
		c0.3-0.5,0.7-1.1,1-1.7c-0.9-0.6-1.8-0.7-2.9-0.6c0,0.4-0.1,0.8-0.1,1.1c0,1.2-0.6,2.2-1.5,2.9C456.6,89,456.2,89.6,455.6,90.2z"/>
	<path class="st11" d="M499.1,54.1c-0.9-0.3-1.7-0.5-2.6-0.8c-1.5,1.4-3,2.8-4.5,4.3c-0.1,0.1-0.1,0.3-0.1,0.5
		c2.3-1.2,4.6-2.4,6.8-3.6C498.9,54.3,499,54.2,499.1,54.1z"/>
	<path class="st12" d="M114.3,72.7c-3.2,0-6.5,0-9.7,0c0.3,0.1,0.5,0.2,0.8,0.2c2.7,0,5.4,0,8.1,0C113.8,72.9,114,72.8,114.3,72.7z"
		/>
	<path class="st13" d="M144.7,70.4c-0.3,0.1-0.6,0.2-0.9,0.2c-1,0-1.9,0-2.9,0c-0.4,0-0.7,0.1-1.1,0.2c2.1,0,4.3,0,6.4,0l0,0
		C145.7,70.7,145.2,70.6,144.7,70.4z"/>
	<path class="st14" d="M353.6,69.9c-2,0-4.1,0-6.1,0c-0.3,0-0.6,0.1-0.8,0.2c2,0,4.1,0,6.1,0C353.1,70.1,353.4,70,353.6,69.9z"/>
	<path class="st15" d="M356.4,95.1c-0.2-0.1-0.3-0.2-0.5-0.3c-0.5,0.3-1.1,0.6-1.6,0.8C355.1,95.8,355.8,95.7,356.4,95.1z"/>
	<path class="st14" d="M139.1,70.9c-1.2,0.1-2.4,0.2-3.6,0.2C136.7,71.1,137.9,71.4,139.1,70.9z"/>
	<path class="st3" d="M477.1,66.5c-0.7,0.2-1.2,0.6-1.2,1.3C476.5,67.6,477,67.3,477.1,66.5z"/>
	<path class="st14" d="M123,72.2c-0.9,0.1-1.9,0.2-2.8,0.2C121.1,72.3,122,72.2,123,72.2z"/>
	<path class="st16" d="M356.9,69.6c-0.9,0.1-1.7,0.2-2.6,0.2C355.2,69.8,356.1,69.7,356.9,69.6z"/>
	<path class="st14" d="M135,71.1c-0.9,0.1-1.7,0.1-2.6,0.2C133.3,71.3,134.1,71.2,135,71.1z"/>
	<path class="st17" d="M118.9,72.4c-0.9,0.1-1.7,0.1-2.6,0.2C117.2,72.6,118.1,72.5,118.9,72.4z"/>
	<path class="st14" d="M128.8,71.7c-0.8,0.1-1.5,0.1-2.3,0.2C127.3,71.8,128.1,71.7,128.8,71.7z"/>
	<path class="st14" d="M126,71.9c-0.8,0.1-1.5,0.1-2.3,0.2C124.5,72.1,125.3,72,126,71.9z"/>
	<path class="st14" d="M131.7,71.4c-0.7,0.1-1.4,0.1-2.1,0.2C130.3,71.5,131,71.5,131.7,71.4z"/>
	<path class="st18" d="M533.8,88c-0.5,0-1,0-1.5,0C532.7,88.4,533.2,88.3,533.8,88z"/>
	<path class="st3" d="M96.7,71.6c-0.4-0.1-0.9-0.1-1.3-0.2C95.8,71.5,96.3,71.6,96.7,71.6z"/>
	<path class="st3" d="M576.1,50.5c-0.5,0-0.5,0.4-0.5,0.7C575.7,51,575.9,50.7,576.1,50.5z"/>
	<path class="st3" d="M577.3,49.4c-0.4,0-0.7,0.1-0.7,0.6C576.9,49.8,577.1,49.6,577.3,49.4z"/>
	<path class="st13" d="M146.2,70.9c0.2,0.1,0.5,0.2,0.7,0.2c0-0.1,0-0.1,0-0.2C146.7,70.9,146.4,70.9,146.2,70.9
		C146.2,70.9,146.2,70.9,146.2,70.9z"/>
	<path class="st18" d="M181.9,88c-0.2,0-0.4,0-0.5,0C181.6,88,181.7,88,181.9,88z"/>
	<path class="st6" d="M250.5,44.9c-0.1,0.1-0.2,0.1-0.2,0.2C250.4,45,250.5,44.9,250.5,44.9z"/>
	<path class="st3" d="M376.4,62.4c-0.1,0-0.2,0-0.3,0C376.2,62.4,376.3,62.4,376.4,62.4z"/>
	<path class="st18" d="M582.8,37.8c0.1,0,0.1,0,0.2,0C582.9,37.8,582.8,37.8,582.8,37.8z"/>
	<path class="st15" d="M81.1,71.4c-0.1,0-0.2,0-0.3,0C81,71.4,81.1,71.4,81.1,71.4z"/>
	<path class="st15" d="M558.8,86.5c-0.1,0.1-0.2,0.1-0.3,0.2C558.6,86.6,558.7,86.5,558.8,86.5z"/>
	<path class="st18" d="M539.9,88c-0.1,0-0.2,0-0.3,0C539.7,88,539.8,88,539.9,88z"/>
	<path class="st18" d="M535.3,88c-0.1,0-0.2,0-0.3,0C535.1,88,535.2,88,535.3,88z"/>
	<path class="st18" d="M178.1,88c-0.1,0-0.2,0-0.3,0C177.9,88,178,88,178.1,88z"/>
	<path class="st8" d="M567.8,31.9c-0.1,0.1-0.2,0.1-0.3,0.2C567.5,32,567.7,32,567.8,31.9z"/>
	<path class="st3" d="M281.9,106.9c0,0-0.1,0-0.1,0C281.9,106.9,281.9,106.9,281.9,106.9C281.9,106.8,281.9,106.9,281.9,106.9z"/>
	<path class="st1" d="M286.5,13c0,0,0.1-0.1,0.1-0.1C286.6,12.9,286.6,12.9,286.5,13C286.5,12.9,286.5,13,286.5,13
		C286.5,13,286.5,13,286.5,13z"/>
	<path class="st19" d="M648.3,55.8c2.2,1.7,4.4,3.4,6.7,5.1c0.1,0,0.3,0,0.4,0.1c1.8,1.3,3.6,2.6,5.3,3.9c2,1.5,4,3,6.3,4.1
		c0.3,0.2,0.5,0.3,0.8,0.5c0,0,0,0,0,0c0.2,0.2,0.4,0.3,0.5,0.5c0.6,0.7,1.3,1.3,2.3,0.8c2.1-2.3,4.7-4,7.2-5.8
		c2.7-1.8,5.5-3.7,8.2-5.6c1-0.7,1.9-1.6,2.8-2.4c2.4-2.3,4.9-4.6,7.3-6.9c0.3-0.3,0.6-0.6,0.9-0.9c-3.2-1.5-6.3-3.1-9.5-4.6
		c-3.4-1.6-6.7-3.4-10.4-4.5c-1.5-0.4-2.9-0.8-4.5-0.9c-2.6-0.1-4.8,0.8-7,2c-1.1,0.6-2.3,1.2-3.5,1.8c-0.8,0.4-1.5,0.9-2.3,1.3
		c-0.3,0.4-0.5,0.8-0.8,1.1c-2,2-4,4-6,6c-1.1,1.1-2.3,2-3.4,3C649.2,54.9,648.4,55,648.3,55.8z"/>
	<path class="st20" d="M666.9,69.1c-2.3-1.1-4.3-2.6-6.3-4.1c-1.7-1.3-3.5-2.6-5.3-3.9c-0.1-0.1-0.2-0.1-0.4-0.1
		c0.5,0.8,0.8,1.7,1.4,2.3c1.5,1.7,3,3.3,4.6,4.9c1,1,2.2,1.9,3.2,2.8c0.5,0.4,1,0.9,1.5,1.4c0.9,1,0.9,1.5,0.1,2.6
		c-0.1,0.1-0.2,0.3-0.4,0.5c0.8,0.6,1.6,1.3,2.4,1.8c1.3,0.9,2.7,1.8,4,2.6c1.5,0.9,3.1,1.1,4.8,1.2c1.6,0.1,3.1,0.3,4.5,1.1
		c1.8,0.9,2.3,2.5,1.2,4.2c-0.8,1.3-0.5,1.9,0.7,2.5c2,1.1,4.1,1.9,6.4,2.5c1.6,0.4,3.2,1,4.8,1.5l0,0c-0.1-0.8-0.7-1.1-1.2-1.5
		c-1.6-1.2-2-2.7-1.1-4.5c2.3,0,4.6,0.1,6.9,0.1c0-0.2,0-0.5,0-0.7c-0.1,0-0.2,0-0.2,0c-0.4-0.1-0.8,0-1.1-0.2c-1.3-0.6-2.7-1.3-4-2
		c-0.5-0.3-1.2-0.4-1.3-1.1c0,0,0,0,0,0c-0.1-0.1-0.2-0.1-0.3-0.2c-1.3-0.8-2.7-1.6-4-2.4c-0.2-0.1-0.4-0.3-0.6-0.4
		c-0.4-0.2-0.8-0.4-1.2-0.6c-0.2-0.1-0.4-0.3-0.6-0.4c-2.1-1-4.3-2-6.4-3c-2.6-1.3-5.1-2.6-7.7-3.9c-0.4-0.2-1-0.4-0.9-1.1
		c-1,0.5-1.7-0.1-2.3-0.8c-0.2-0.2-0.4-0.3-0.5-0.5c0,0,0,0,0,0C667.3,69.6,667,69.6,666.9,69.1z"/>
	<path class="st10" d="M692.2,82.9c0.1,0.7,0.8,0.8,1.3,1.1c1.3,0.8,2.6,1.4,4,2c0.3,0.2,0.7,0.1,1.1,0.2
		C696.5,85.1,694.3,84,692.2,82.9z"/>
	<path class="st1" d="M729.2,101.3c0.2,0.5,0.4,1,1.1,1c0-0.3,0-0.7,0-1C729.9,101.3,729.5,100.8,729.2,101.3z"/>
	<path class="st10" d="M698.8,86.2c0,0.2,0,0.5,0,0.7c0.3,0,0.7,0,1,0C699.8,86.4,699.3,86.3,698.8,86.2z"/>
	<path class="st3" d="M685.5,78.9c0.2,0.1,0.4,0.3,0.6,0.4C685.9,79.1,685.7,79,685.5,78.9z"/>
	<path class="st3" d="M687.3,79.9c0.2,0.1,0.4,0.3,0.6,0.4C687.7,80.2,687.5,80,687.3,79.9z"/>
	<path class="st10" d="M691.9,82.7c0.1,0.1,0.2,0.1,0.3,0.2C692.1,82.8,692,82.7,691.9,82.7z"/>
	<path class="st3" d="M730.3,65.6c0.1,0,0.1,0,0.2,0C730.4,65.5,730.4,65.5,730.3,65.6z"/>
	<path class="st21" d="M91.4,29.3c0.2,0.3,0.4,0.6,0.7,0.8c2.8,1.8,5.1,4.2,7,6.9c1.4,2,3,4,4.5,5.9c0.1,0.2,0.3,0.3,0.5,0.4
		c0.9-0.3,1.7-0.7,2.6-1c3.3-1.1,6.7-2.1,10-3.3c4.8-1.6,9.6-3.4,14.4-5c2.3-0.8,4.7-1.4,7.1-2c0.2,0,0.3-0.1,0.5-0.2
		c-1.1-0.9-2-1.9-3.2-2.6c-0.6-0.4-1.5-0.5-2.3-0.6c-0.8-0.2-1.7-0.2-2.5-0.3c-1.6-0.2-3,0.4-4.2,1.4c-0.5,0.5-1.2,0.9-1.7,1.3
		c-1.9,1.4-3.3,1.5-5.3,0.2c-1.2-0.8-2.3-1.7-3.4-2.6c-1-0.9-2.2-1.2-3.5-1.3c-2.2-0.1-4.3-0.1-6.5,0c-1.9,0.1-3.7,0.3-5.5,0.5
		c-1.2,0.2-2.4,0.5-3.7,0.7c-1.1,0.2-2.2,0.4-3.4,0.5C92.8,29.2,92.1,29.3,91.4,29.3z"/>
	<path class="st11" d="M240.9,34.9c0-0.1,0-0.2,0-0.2c-0.9-0.4-1.8-0.8-2.6-1.3c-2.7-1.6-5.6-2.7-8.7-3.4c-3.2-0.7-6.2-0.4-9.2,0.8
		c-0.9,0.4-1.8,0.7-2.7,1.1c0,1.1,0.7,1.8,1.2,2.6c1.8,2.7,3.7,5.3,5.5,7.8c0.6,0.8,1.4,1.5,2.1,2.3c0.5-0.4,0.9-0.8,1.4-1.1
		c2.3-1.4,4.8-2.7,7.1-4.3C237,38,238.9,36.4,240.9,34.9z"/>
	<path class="st22" d="M648.3,55.8c0-0.8,0.8-0.9,1.3-1.3c1.1-1,2.3-1.9,3.4-3c2-2,4-4,6-6c0.3-0.3,0.5-0.7,0.8-1.1
		c-1.6,0.4-3.2,0.8-4.8,1.1c-2.3,0.5-4.5,0.1-6.6-1.1c-1.2-0.7-2.4-1.3-3.5-2c-1.6-0.8-3.3-1-5.1-0.8c-0.8,0.1-1.6,0.4-2.2,0.9
		c-1.4,1.1-2.6,2.3-3.9,3.4c0.3,0.3,0.6,0.6,1,0.8c3.1,2,6.2,4,9.3,6C645.4,53.8,646.9,54.8,648.3,55.8z"/>
	<path class="st16" d="M549.6,25.8c0.4,0.3,0.9,0.5,1.3,0.8C550.7,25.8,550.1,25.8,549.6,25.8z"/>
	<path class="st6" d="M600.3,22.7c0.2,0.3,0.3,0.6,0.5,0.9c1.8,1.9,3.2,4.1,4.4,6.4c2.1,3.9,3.6,8,5.3,12c1.4,3.3,3.1,6.4,4.7,9.6
		c0.7,1.3,1.7,2.3,2.5,3.5c-0.6,0.5-1.1,1-1.7,1.5c-1,1-1.5,2.2-1.5,3.6c-0.2,3.1,0.7,6,1.5,9c0.4,1.3,0.7,2.5,1,3.8
		c0.7,2.7,0.2,5.3-0.9,7.9c-0.5,1.1-0.8,2.3-0.8,3.4c0.1,2,1,3.8,2.7,5c2.6,1.9,5.1,3.7,7.7,5.6c0.8,0.6,1.6,1.4,2.2,2.2
		c2.1,2.6,4.1,5.4,6.3,8c1.7,2.1,4,3.6,6.5,4.5c2,0.8,4,1.4,6,2.1c3.9,1.2,7.4,3.3,10.7,5.7c3.1,2.2,6.3,4.4,9.5,6.6
		c0.5,0.4,1.2,0.6,2,1c0-0.9,0-1.6,0-2.2c0-2.2,0.9-3.7,2.9-4.7c1.4-0.7,2.9-1.1,4.4-1.1c3-0.1,6,0,9,0c2.1,0,4.2,0.3,6.3,0.2
		c2.4-0.2,4.9-0.1,7.3-0.7c2.3-0.6,4.5-1.6,6.4-3c0.9-0.7,1.7-1.4,2.6-2.1c0.1-0.1,0.2-0.3,0.5-0.7c-1.1-0.1-2-0.3-2.9-0.3
		c-3.3,0-6.6,0-9.9,0c-2,0-3.8-0.4-5.7-1.1c-1.7-0.7-2.8-1.9-3.2-3.7c-0.4-1.9-1.3-3.6-2.6-4.9c-0.9-0.9-2.1-1.7-3.4-2.2
		c-2.2-0.9-4.6-1.5-6.9-2.1c-2.4-0.7-4.8-1.3-6.9-2.8c-1.2-0.9-2.4-1.9-3.5-2.9c-1.6-1.5-3.2-3-4.8-4.5c-2.2-2-3.6-4.4-4.6-7.1
		c-0.7-2-1.9-3.7-3.4-5.2c-2.4-2.6-5-4.8-7.7-7c-1.7-1.4-3.2-3-4.7-4.6c-0.7-0.8-1.1-1.8-1.5-2.8c-1.2-2.4-2.6-4.5-4.6-6.4
		c-1.2-1.1-2.5-2-4-2.7c-2.9-1.2-5.4-2.9-7.4-5.4c-2.6-3.1-4.7-6.5-7-9.8c-1.5-2.2-3-4.4-4.8-6.4c-1.3-1.5-2.7-2.8-4.3-3.9
		C603.4,23.9,602,23,600.3,22.7L600.3,22.7z"/>
	<path class="st20" d="M707,91.8c0.6,0.5,1.1,1,1.7,1.5c0.8,0.6,1.6,1.2,2.3,1.9c0.3,0.3,0.6,0.8,0.7,1.3c0.3,0.8,0,1.3-0.7,1.8
		c-0.2,0.1-0.4,0.3-0.7,0.4c0.4,1.7,1.4,2.8,2.8,3.6c0.2,0.1,0.7,0.1,0.8,0c0.9-1.3,2.4-1.5,3.7-2.1c0.1,0,0.1-0.1,0.2-0.2
		c-1-1.6-1.9-3.4-3-4.9c-0.7-1-1.7-1.7-3-1.5c-1.3,0.2-2.3-0.7-3.4-1.2C708,92.2,707.5,92,707,91.8C707,91.8,707,91.8,707,91.8z"/>
	<path class="st20" d="M706.7,91.6c-0.1-0.1-0.2-0.1-0.3-0.2C706.6,91.4,706.7,91.5,706.7,91.6L706.7,91.6z"/>
	<path class="st20" d="M706.7,91.6c0.1,0.1,0.2,0.2,0.3,0.3c0,0,0,0,0,0C706.9,91.7,706.8,91.6,706.7,91.6
		C706.7,91.6,706.7,91.6,706.7,91.6z"/>
	<path class="st20" d="M694.2,92.8c0,0,0,0.1,0.1,0.1C694.3,92.9,694.3,92.9,694.2,92.8C694.2,92.8,694.2,92.8,694.2,92.8z"/>
	<path class="st6" d="M600.4,22.7c0,0-0.1-0.1-0.1-0.1C600.3,22.6,600.2,22.6,600.4,22.7C600.3,22.7,600.3,22.7,600.4,22.7
		C600.3,22.7,600.4,22.7,600.4,22.7z"/>
	<path class="st10" d="M329.4,54.6c-0.1-0.9-1-1.1-1.6-1.6c-2-1.5-4-3-6-4.4c-2.8-1.9-5.9-3.1-9.2-3.7c-1.9-0.4-3.9-0.5-5.9-0.8
		c0,0.2,0,0.5,0.2,0.7c0.7,1,1.4,2.1,2.3,3.1c1.8,2,3.7,3.9,5.9,5.4c1.5,1,3,2.1,4.5,3.1c0.2,0.1,0.5,0.2,0.7,0.3
		c1.6-0.5,3.2-1,4.8-1.6C326.5,54.5,327.9,54.6,329.4,54.6z"/>
	<path class="st9" d="M393.2,73.7c1.8,1.3,3.5,2.6,5.6,3.3c0.2-0.2,0.3-0.4,0.5-0.5c0.7-0.4,1.6-0.7,2.3-1.1c1-0.6,2.2-1.1,2.9-2.2
		c-0.3-0.4-0.7-0.8-1-1.3c-0.4,0-0.8,0-1.2,0.1c-2.3,0.4-4.5,0.9-6.8,1.4C394.6,73.6,393.9,73.6,393.2,73.7z"/>
	<path class="st22" d="M240.9,34.9c-2,1.5-3.8,3-5.9,4.4c-2.3,1.5-4.7,2.8-7.1,4.3c-0.5,0.3-0.9,0.7-1.4,1.1
		c1.8,1.9,3.8,3.6,6.2,4.8c2.2,1.1,4.4,1,6.7,0.3c0.7-0.2,1.3-0.5,2-0.8c0.1-2.6,0.1-5.2,0.3-7.7c0.1-1.9,0.3-3.7,0.5-5.5
		C241.7,35.4,241.3,35.2,240.9,34.9z"/>
	<path class="st6" d="M563.4,79.4c-1.5-0.2-2.7,0.3-3.8,0.9c-1.1,0.6-2.3,1.4-3.6,1.5c-1.3,0.1-2.7,0.4-4,0.2
		c-1.3-0.2-2.2,0.1-3.2,0.8c-0.4,0.3-0.8,0.7-1.1,1.2c0.3,0,0.5,0,0.8-0.1c0.5,0,1.1-0.2,1.6-0.1c2.1,0.3,4.2,0.8,6.3,1.1
		c1,0.2,2.1,0.2,3.2,0.1c1.4-0.2,2.4-1.2,2.9-2.5C562.9,81.7,563.1,80.6,563.4,79.4z"/>
	<path class="st11" d="M404.4,73.2c-0.7,1.1-1.9,1.6-2.9,2.2c-0.7,0.4-1.5,0.7-2.3,1.1c-0.2,0.1-0.3,0.3-0.5,0.5
		c0.6,0.4,1.2,0.8,1.8,1.3c0.7,0.5,1.4,1.1,2.2,1.4c1.2,0.4,2.3,0.7,3.5,0.4c0.8-0.2,1.8-0.2,2.6-0.3c0.6-0.1,1.2-0.3,1.8-0.5
		C408.7,77.3,406.5,75.2,404.4,73.2z"/>
	<path class="st3" d="M330.7,66.5c0.2,0.3,0.3,0.5,0.5,0.8C331,67.1,330.8,66.8,330.7,66.5z"/>
	<path class="st8" d="M330.7,55.1c-0.2-0.1-0.4-0.2-0.5-0.2C330.3,54.9,330.5,55,330.7,55.1z"/>
	<path class="st3" d="M331.4,67.6c0.1,0,0.2,0,0.3,0C331.6,67.6,331.5,67.6,331.4,67.6z"/>
	<path class="st3" d="M331.2,67.3c0.1,0.1,0.2,0.2,0.3,0.3C331.4,67.5,331.3,67.4,331.2,67.3z"/>
	<path class="st3" d="M330.4,66.3c0.1,0.1,0.2,0.2,0.3,0.3C330.6,66.5,330.5,66.4,330.4,66.3z"/>
	<path class="st3" d="M330.2,66c0.1,0.1,0.2,0.2,0.3,0.3C330.3,66.2,330.2,66.1,330.2,66z"/>
	<path class="st8" d="M548.6,39.8c0.7-0.3,1.4-0.7,1.9-1.4c-0.4-0.2-0.8-0.4-1.2-0.6C549,38.5,548.8,39.1,548.6,39.8
		C548.5,39.8,548.6,39.8,548.6,39.8z"/>
	<path class="st8" d="M548.3,40.3c0.1-0.2,0.2-0.3,0.3-0.5c0,0,0,0,0,0C548.5,39.9,548.4,40.1,548.3,40.3L548.3,40.3z"/>
	<path class="st8" d="M548.3,40.3c0,0-0.1,0.1-0.1,0.1C548.2,40.4,548.2,40.4,548.3,40.3C548.3,40.4,548.3,40.3,548.3,40.3
		C548.3,40.3,548.3,40.3,548.3,40.3z"/>
	<path class="st21" d="M666.9,69.1c0,0.5,0.4,0.5,0.8,0.5C667.4,69.5,667.2,69.3,666.9,69.1z"/>
	<path class="st21" d="M667.7,69.6c0.2,0.2,0.4,0.3,0.5,0.5C668,70,667.9,69.8,667.7,69.6z"/>
</g>
</svg>
