<?xml version="1.0" encoding="utf-8"?>
<!-- Generator: Adobe Illustrator 23.1.1, SVG Export Plug-In . SVG Version: 6.00 Build 0)  -->
<svg version="1.1" id="Layer_1" xmlns="http://www.w3.org/2000/svg" xmlns:xlink="http://www.w3.org/1999/xlink" x="0px" y="0px"
	 viewBox="0 0 472 566.1" style="enable-background:new 0 0 472 566.1;" xml:space="preserve">
<style type="text/css">
	.st0{fill:#F49B3D;}
	.st1{opacity:0.63;fill:#EC8E3B;}
	.st2{fill:#F1AD73;}
	.st3{fill:#EC8E3B;}
	.st4{fill:#FFFFFF;}
	.st5{opacity:0.1;fill:#942C15;}
	.st6{fill:#ECB9C5;}
	.st7{fill:none;stroke:#794F43;stroke-width:2;stroke-linecap:round;stroke-linejoin:round;stroke-miterlimit:10;}
	.st8{fill:#ED88B0;}
	.st9{fill:none;stroke:#64402F;stroke-width:9;stroke-linecap:round;stroke-linejoin:round;stroke-miterlimit:10;}
	.st10{opacity:0.29;}
	.st11{fill:#B36A2E;}
	.st12{fill:none;stroke:#1D1D1B;stroke-miterlimit:10;}
	.st13{fill:#F1AE7B;}
	.st14{fill:#0084C1;}
	.st15{fill:#0080B4;}
	.st16{opacity:0.36;fill:#EC8E3B;}
	.st17{fill:#0092D1;}
	.st18{fill:#F0C0A1;}
	.st19{opacity:7.000000e-02;}
	.st20{fill:#942C15;}
	.st21{fill:#794F43;}
	.st22{fill:none;stroke:#C99D66;stroke-width:5;stroke-miterlimit:10;enable-background:new    ;}
	.st23{opacity:0.34;fill:#BD1622;}
	.st24{fill:none;stroke:#FDFDFD;stroke-width:3;stroke-miterlimit:10;enable-background:new    ;}
	.st25{fill:none;stroke:#C99D66;stroke-width:0.5;stroke-miterlimit:10;enable-background:new    ;}
	.st26{fill:#E3AC61;}
	.st27{opacity:0.49;fill:#B36A2E;}
	.st28{opacity:0.1;fill:#FFFFFF;}
	.st29{fill:#F09F5F;}
	.st30{opacity:0.16;fill:#FFFFFF;enable-background:new    ;}
	.st31{fill:none;}
	.st32{fill:#51ACE1;}
	.st33{fill:#0097D7;}
	.st34{opacity:0.8;fill:#202020;}
	.st35{fill:#E76F5D;}
</style>
<g>
	<g>
		<path class="st0" d="M250.6,251.1c0.1-0.5,0.3-0.9,0.4-1.4l8.1-34.9l10.2-44.3c0.3-1.4-0.8-2.6-2.2-2.5l-113.3,15.1
			c-3.1,0.3-5.4-7.3-6.8-10.1l-8.1-16.6c-1.6-3.3-0.1-7.3,3.3-8.7l29.4-12.6L276,101.8l11-3.1c3.9-1.1,5.8-5.4,4.1-9l-12.4-26.5
			c-4.5-9.9-3.5-21.5,2.7-30.5c7.1-10.3,17.7-23,30.1-29.1c0,0,49.5-19.4,62,32.3c0,0,4.7,19-1.3,54.5c-0.6,3.4,1.4,6.8,4.6,8
			c13.3,4.9,45.5,22,54.1,74.1l11.8,55.4c3.2,15.1-3.5,30.7-16.9,38.2c-16.5,9.2-47.5,7.3-88.6-46l32.2-26.5l35.2,28.1"/>
		<path class="st1" d="M286.4,46.5c0,0,32.6-14.7,32.4-28.8c-0.4-21.5,19,2.9,27.6,8.2c8.6,5.3,8.6,14.9,8.6,14.9L286.4,46.5z"/>
		<path class="st2" d="M355.9,197l2-19.2c0.2-2.2,2.3-3.9,4.5-3.6l19.2,2c2.2,0.2,3.9,2.3,3.6,4.5l-1.6,15.5l-12.8-5.9L355.9,197z"
			/>
		<path class="st3" d="M381.1,182l-19.2-2c-2.2-0.2-3.9-2.3-3.6-4.5l0.4-3.5c0.2-2.2,2.3-3.9,4.5-3.6l19.2,2
			c2.2,0.2,3.9,2.3,3.6,4.5l-0.4,3.5C385.3,180.6,383.3,182.2,381.1,182z"/>
		<circle class="st4" cx="364.3" cy="174.3" r="1.3"/>
		<circle class="st4" cx="379.7" cy="175.6" r="1.3"/>
		<path class="st5" d="M354,40.5c-2.8,0.1-6,0.2-9.5,0.4c3.2,2,0.9,16.3,8.1,23.1c4.5,4.3-5.7,14.4-9.8,19.2
			c-11.2,12.8-0.3,17.4-10.4,21c2.7,0.8-10,9.3-7.2,8.5c11.3-3.2,32.8-15.1,34.9-45.4C360.1,67.3,360.5,40.2,354,40.5z"/>
		<path class="st6" d="M323.7,102.3c-1.5,0.2-3,0.1-4.5-0.3c-1.5-0.4-2.9-0.8-3.8-1.7c-1.1-1-2.2-2.5-2.7-4.3
			c-0.3-1.1,0.4-2.3,1.6-2.4l22.6-1.5c0.8-0.1,1.4,0.8,1,1.6c0,0.1-0.1,0.2-0.2,0.3c-2.1,4.4-6.4,7.4-11.1,7.9L323.7,102.3z"/>
		<line class="st7" x1="342.5" y1="63.4" x2="356.2" y2="59.7"/>
		<path class="st4" d="M313.2,95.9c0,0,18.3,2.7,24.2-2.9c0,0,0.8-0.9-1.2-0.8L314,93.7C314,93.7,311.7,95.2,313.2,95.9z"/>
		<path class="st8" d="M319,96.6c0,0-0.3,0.9-0.2,2c0.1,1.9,2.2,4,4.1,3.8c3.4-0.3,14.5-2,13.4-8.5C336.2,93.9,330.3,97.4,319,96.6z
			"/>
		<path class="st9" d="M326.5,111.7l-0.2,0c-9.4,1-17.9-5.8-19-15.2l-0.2-2.1c-0.3-2.5,1.5-4.7,4-5l24.2-2.7
			c3.4-0.4,6.5,2.1,6.8,5.5v0C343.2,101.9,336.2,110.6,326.5,111.7z"/>
		<g class="st10">
			<path class="st11" d="M329.1,115.8c-4.9,0-9.6-1.7-13.5-4.8c-4.5-3.6-7.4-8.8-8-14.5l-0.2-2.1c-0.3-2.4,0.4-4.8,1.9-6.6
				c1.5-1.9,3.7-3.1,6.1-3.3l20-2.2c-0.1,0-0.2,0-0.3,0l-24.2,2.7c-2.4,0.3-4.6,1.5-6.1,3.3c-1.5,1.9-2.2,4.3-1.9,6.6l0.2,2.1
				c0.6,5.7,3.5,10.9,8,14.5c3.9,3.1,8.6,4.8,13.5,4.8c0.8,0,1.6,0,2.4-0.1l0.2,0c0.7-0.1,1.4-0.2,2.1-0.3
				C329.2,115.8,329.1,115.8,329.1,115.8z"/>
		</g>
		<path class="st0" d="M383.1,217.8l-0.3,90.6c0,0-22.2-20.7-50.8-24.5c-34.4-4.6-80.6,0.3-80.6,0.3c-5.9-0.2-10.2-5.1-8.8-10.2
			l9.4-28.9"/>
		<path class="st12" d="M300.3,84.9"/>
		<g>
			<polyline class="st13" points="321,138.2 294.1,282 303.1,281.9 337.6,138.2 			"/>
		</g>
		<path class="st3" d="M291.9,84.2c0,0-4.3,27.8,23.6,48.1l5.5,5.9h16.5l3.4-6.7c0,0,37.2-11.3,31.7-37.1l0.6-17.9
			c0,0-7.4-11.8-14.9,3.8C350.8,95.9,316.2,142.8,291.9,84.2z"/>
		<path class="st14" d="M129.1,150.5l-27.1,6.4c-3.7,0.9-6.9,3.2-9,6.4c-2.3,3.5-4.9,8.9-6.6,15.9c-0.6,2.7-0.2,5.6,1.3,7.9
			c4,6.5,13,19.3,19.6,16.6c8.8-3.6,18.6-31.1,19.2-16.6c0.5,14.5,7.6,18.1,14.9,4.7S129.1,150.5,129.1,150.5"/>
		<path class="st15" d="M103.1,199.6c-1.5-2.4-1.9-5.2-1.3-7.9c1.7-7,4.4-12.3,6.6-15.9c2-3.2,5.3-5.5,9-6.4l19.9-4.7
			c-3.9-7.9-8.2-14.1-8.2-14.1l-27.1,6.4c-3.7,0.9-6.9,3.2-9,6.4c-2.3,3.5-4.9,8.9-6.6,15.9c-0.6,2.7-0.2,5.6,1.3,7.9
			c3.8,6.1,11.9,17.8,18.4,16.9C105,202.5,104,200.9,103.1,199.6z"/>
		<path class="st16" d="M245.4,169.8l1.7-1.2l22.4-15.6c5.6-3.9,13.4-1.3,15.4,5.2c6.6,20.5,17.1,58.4,5.6,59.5
			c-33.9,3.5-20.2,64.8-20.2,64.8s-13.3,1.5-19.4,0.9c-4-0.4-4.9-1.3-7.3-5.7c-2.3-4.3,1.3-8,4-14c7.4-27.4,21.5-93.1,21.5-93.1
			s0.1-2.7-2.2-2.5L245.4,169.8z"/>
		<path class="st17" d="M147.3,189.2L147.3,189.2c-4.7,1.3-9.6-1.6-10.8-6.3l-7.2-27.2c-1.3-4.7,1.6-9.6,6.3-10.8h0
			c4.7-1.3,9.6,1.6,10.8,6.3l7.2,27.2C154.9,183.1,152.1,188,147.3,189.2z"/>
		<path class="st18" d="M315.8,71.7l-4,11.2c-0.7,1.7-0.6,2.9,0.7,4.2c1.2,1.2,3.3,2.5,6.9,1.4c2.1-0.6,4-1.5,5.4-3.2
			c1.2-1.4,2.7-3.4,5.8-2.6"/>
		<g class="st19">
			<path class="st20" d="M314.4,87.1c-1.3-1.4-1.4-2.5-0.7-4.2l3.6-10.1l-1.4-1.1l-4,11.2c-0.7,1.7-0.6,2.9,0.7,4.2
				c1,1,2.6,2,5.2,1.7C316.2,88.6,315.1,87.9,314.4,87.1z"/>
			<path class="st20" d="M330.2,82.6c0.1,0,0.3,0.1,0.5,0.1l-0.2-0.1C330.4,82.6,330.3,82.6,330.2,82.6z"/>
		</g>
		<ellipse class="st21" cx="305.6" cy="65.2" rx="2.1" ry="3.1"/>
		<ellipse class="st21" cx="335.4" cy="64.5" rx="2.1" ry="3.1"/>
		<g>
			<path class="st21" d="M344.3,54.6c0,0-3.4-1.7-9.4-1c-0.1,0-0.1,0.1-0.1,0.1c-4.8,1.9-9.6,1.9-9.1,1.6c0,0-2.5-3,3.5-3.3
				C332.9,51.8,342.7,49.1,344.3,54.6z"/>
		</g>
		<g>
			<path class="st21" d="M292.8,57.5c0,0,3.4-1.7,9.4-1c0.1,0,0.1,0.1,0.1,0.1c4.8,1.9,9.6,1.9,9.1,1.6c0,0,2.5-3-3.5-3.3
				C304.2,54.7,294.4,52,292.8,57.5z"/>
		</g>
		<path class="st7" d="M311.3,71.3l-14.2,0.5c-1.2,0-2.3-0.9-2.3-2.2l-0.3-7.7c0-0.9,0.7-1.7,1.6-1.7l14.7-0.5
			c1.2,0,2.3,0.9,2.3,2.2l0.2,7.1C313.5,70.2,312.5,71.3,311.3,71.3z"/>
		<path class="st7" d="M340.3,69.2h-12.4c-1.2,0-2.2-1-2.2-2.2v-6.6c0-0.9,0.8-1.7,1.7-1.7h13c1.2,0,2.2,1,2.2,2.2v6
			C342.5,68.2,341.5,69.2,340.3,69.2z"/>
		<path class="st22" d="M294.4,46.1c-3.6,0.1-6.6,2.6-6.7,5.8c0,0.2,0,0.4,0,0.6l1.2,17.8c0.2,3.1,1.5,6.1,3.8,8.5
			c3.8,3.7,12.2,5.4,21.1-8.4c0,0,2.7-2.9,5.6,0.7c0,0,4.1,9.3,16.2,8.8l0.1,0c5.4-0.2,10.6-2.1,14.6-5.4l5.2-4.1
			c1.6-1.1,3.1-3.2,3.1-4.9c0-4-0.1-11.4-1.5-15.6c-0.6-1.8-1.5-5.8-3.6-6L294.4,46.1z"/>
		<g>
			<path class="st21" d="M323.7,66.3c-3.5-1.4-5.6-1.9-9.2-0.4c-1.1,0.5-1.5,0.1-1.8-0.6c-0.1,0.1,0,0,0,0c-0.2-0.7,0-1.3,1.2-1.8
				c3.8-1.6,6.5-1.3,10.2,0.2c1.1,0.5,1.3,0.9,1.2,1.6c0.1,0.1,0,0,0,0C325.2,66.2,324.7,66.7,323.7,66.3z"/>
		</g>
		<path class="st23" d="M293.1,43.5c-3.7,0.2-6.9,3.1-7,6.8c0,0.2,0,0.4,0,0.7l1.3,20.7c0.2,3.6,1.6,7.1,4,9.8
			c3.9,4.4,12.7,6.3,22-9.8c0,0,2.8-3.4,5.9,0.9c0,0,4.3,10.8,16.9,10.2l0.1,0c5.7-0.3,11-2.5,15.3-6.2l5.5-4.8
			c1.6-1.2,3.2-3.7,3.2-5.7c0-4.7-0.2-13.2-1.6-18.1c-0.6-2.1-1.6-6.7-3.7-7L293.1,43.5z"/>
		<g>
			<path class="st11" d="M293.8,151.7c-0.7-0.3-2-1-1.6-2c8.4-22.4,3.6-40.8,0-63.8c-0.2-1,1-1.6,1.9-1.7c0.9-0.1,2.1,0.1,2.3,1.1
				c3.5,22.7,8.1,44-0.2,66C295.9,152.2,294.6,152,293.8,151.7z"/>
		</g>
		<g>
			<path class="st11" d="M356.8,139.9c-0.8-0.2-2.5-0.8-2.3-1.8c4.7-22.5,5.4-41.6-0.1-64.1c-0.2-1,1.4-1.7,2.2-1.9
				c0.8-0.2,2.6-0.3,2.8,0.7c5.3,23.2,5,43.1,0,66.4C359.4,140.2,357.6,140,356.8,139.9z"/>
		</g>
		<path class="st24" d="M293.4,44.1c-3.7,0.2-6.9,3.1-7,6.8c0,0.2,0,0.4,0,0.7l1.3,20.7c0.2,3.6,1.6,7.1,4,9.8
			c3.9,4.4,12.7,6.3,22-9.8c0,0,2.8-3.4,5.9,0.9c0,0,4.3,10.8,16.9,10.2l0.1,0c5.7-0.3,11-2.5,15.3-6.2l5.5-4.8
			c1.6-1.2,3.2-3.7,3.2-5.7c0-4.7-0.2-13.2-1.6-18.1c-0.6-2.1-1.6-6.7-3.7-7L293.4,44.1z"/>
		<path class="st25" d="M293.3,44.3c-3.7,0.2-6.9,3-7,6.7c0,0.2,0,0.4,0,0.7l1.3,20.5c0.2,3.6,1.6,7.1,4,9.8
			c3.9,4.3,12.7,6.3,22-9.8c0,0,2.8-3.4,5.9,0.9c0,0,4.3,10.7,16.9,10.1l0.1,0c5.7-0.3,11-2.5,15.3-6.2l5.5-4.8
			c1.6-1.2,3.2-3.7,3.2-5.7c0-4.6-0.2-13.1-1.6-18c-0.6-2.1-1.6-6.6-3.8-6.9L293.3,44.3z"/>
		<path class="st2" d="M298.8,200.6l-19.2-2c-2.2-0.2-3.9-2.3-3.6-4.5l2-19.2c0.2-2.2,2.3-3.9,4.5-3.6l19.2,2
			c2.2,0.2,3.9,2.3,3.6,4.5l-2,19.2C303.1,199.2,301,200.9,298.8,200.6z"/>
		<path class="st26" d="M370.9,190.3"/>
		<path class="st3" d="M370.9,190.3l38.3,27.6l-15.4-39.4l4.6,21.3c0.4,2.1-1.7,3.7-3.6,2.8L370.9,190.3"/>
		<path class="st3" d="M301.1,179.1l-19.2-2c-2.2-0.2-3.9-2.3-3.6-4.5l0.4-3.5c0.2-2.2,2.3-3.9,4.5-3.6l19.2,2
			c2.2,0.2,3.9,2.3,3.6,4.5l-0.4,3.5C305.3,177.7,303.3,179.3,301.1,179.1z"/>
		<polygon class="st27" points="321,138.2 319,113.2 329.8,110.9 337.6,138.2 		"/>
		<path class="st13" d="M319,113.2l-3.2,2.8c-2.3,2-2,5.7,0.5,7.4l21.2,14.8l-7.8-27.4L319,113.2z"/>
		<path class="st1" d="M151.8,162.1h31.4c9.2,0,18.1-3.4,25-9.5l21.9-19.5c11-9.9,24.6-16.5,39.2-19.1l24.1-4.4l-2.5-11.9
			c0,0-137.6,42.3-141.4,50.6L151.8,162.1z"/>
		<path class="st3" d="M331.5,218.9l54.6,46.1l-4.1,43c0,0-8.8-55-35.9-47.4C311.4,270.3,334.9,237.1,331.5,218.9z"/>
		<polygon class="st28" points="311.4,44.5 321,43.8 309,66.4 300.3,83 296.5,83 304.5,62.5 		"/>
		<polygon class="st28" points="345.1,42.5 354.7,41.8 334,81 330.2,81 		"/>
		<path class="st29" d="M321.2,120.4l3.1,2.8c1.3,1.2,0.9,3.4-0.9,4l-4,1.3l-4,1.3c-1.7,0.6-3.4-1-3-2.7l0.9-4.1l0.9-4.1
			c0.4-1.8,2.5-2.5,3.9-1.2L321.2,120.4z"/>
		<circle class="st4" cx="316.6" cy="126.7" r="1.1"/>
		<circle class="st4" cx="284.3" cy="171.4" r="1.3"/>
		<circle class="st4" cx="299.7" cy="172.7" r="1.3"/>
		<path class="st30" d="M322.4,79.7c0,0-3,4.3-1.7,6.6c0.8,1.4,0.5-3.6,2.2-4.5c1.2-0.6,3,0.5,3,0.5L322.4,79.7z"/>
		<g>
			<path class="st15" d="M366.7,189.9c-2.8-4.8-8.9-7-10.5-12.4c-1-3.4-3.4-5.2-3-8.8c0.5-4.3,0.7-9.4,2.2-13.4
				c1.6-4.2,7.9-11.9,5.3-16.4c-2.9-5-9.2-1.2-12.3,1.3c-3,2.4-9.7,8.2-8.9,12.6c-4-2.7-8.2-5.1-12.4-7.6c-4.8-3-8.2-3.3-12.8,0.5
				c-7.6,6.3-16.6,20.4-13.3,30.4c1.7,5.3,15.5,21.2,23.7,26.1c2.6,1.5,6.1,2.1,7.9,4.6c0.8,1.2,1.2,2.9,2.1,3.9
				c4.9,5.3,13.6-4.9,16.9-8C354.5,200.2,366.7,189.9,366.7,189.9z"/>
			<path class="st14" d="M327.2,145.2c-4.8-3-8.2-3.3-12.8,0.5c-7.6,6.3-19.4,21-16.1,31c1.7,5.3,13.7,20.6,22,25.5
				c2.6,1.5,11.5,0.9,13.3,3.4c0.8,1.2,1.2,2.9,2.1,3.9c4.9,5.3,12.9-3.8,16.2-6.8c1.5-1.4-13.1-14.8-20.2-29.4
				C323,155.6,329.1,146.3,327.2,145.2z"/>
		</g>
		<path class="st17" d="M368.3,194.6L338,219.5c-2,1.6-4.9,1.3-6.5-0.6l-3.7-4.4c-2-2.4-1.6-6,0.8-8l29.4-24.2
			c3.4-2.8,8.5-2.3,11.3,1.1l0,0C372.1,186.7,371.7,191.8,368.3,194.6z"/>
	</g>
	<path class="st31" d="M254.9,237.2c-1.2-1.1-2.6-2-4-2.7C251.6,235.9,252.6,237,254.9,237.2z"/>
	<path class="st32" d="M254.9,237.2c-1.2-1.1-2.6-2-4-2.7C251.6,235.9,252.6,237,254.9,237.2z"/>
	<path class="st32" d="M172.2,337.2c1.7-17.4,1.8-21.3,17-31c17.9-11.5,10-17.7,8.3-35.6c-1.6-17,2.7-24.4,17.3-31
		c9.9-4.4,25.1-10.8,36.2-5.1c-0.6-1.3-1-2.8-1.7-4.2c-15.3-6.3-33-3-48,3.8c-17.4,7.8-18.7,21.9-21.6,36.6
		c-1.8,9.1-6.1,17.7-9.6,27.1c-5.7,15.2-13.5,24.2-17.5,36c-2.7,8-2.5,18-3.1,29.1c-1.3,0-2.6,0.6-3.9,1.5
		C162.7,361.2,170.3,357.3,172.2,337.2z"/>
	<path class="st32" d="M335.9,403.2c3-11.6,12.5-12.8,18.7-21.5c10.7-14.9-1.9-23.2-7.5-35.9c0.6,9-11.1,26.9-15.1,33.9
		c-6.2,11.1-11.7,23.9-16.1,35.7c-3.6,9.5-6.8,18.9-9.9,28.2c7.7-3.4,16.3-5.1,21.4-10.4C336,424.5,333.1,414.1,335.9,403.2z"/>
	<path class="st31" d="M254.9,237.2c-1.2-1.1-2.6-2-4-2.7C251.6,235.9,252.6,237,254.9,237.2z"/>
	<path class="st33" d="M336.9,444.7c6.5,1.5,13.6,5.8,19,9.7c3.7-1.3,8.8-1.9,11.3-5.8c21.8-34,50.2-88.8,29.8-129.1
		c-7.3-14.5-26.7-36.4-41.6-43.9c-18.3-9.3-37.6,2.5-59.7-8l-1-0.6c-19.3,3.6-22.7-20.2-34.4-30c-3.5-2.9-7.2-5.2-11.1-6.8
		c0.7,1.4,1.1,2.9,1.7,4.2c1.4,0.7,2.7,1.6,4,2.7c-2.3-0.2-3.3-1.3-4-2.7c-11.1-5.7-26.3,0.6-36.2,5.1c-14.6,6.5-18.9,14-17.3,31
		c1.7,17.9,9.6,24.1-8.3,35.6c-15.2,9.8-15.3,13.6-17,31c-1.7,18-7.9,23-21.4,26.1c6.4,2.1,13.5,4.6,16.8,6.4
		c5.4,2.9,19.5,14.7,19.5,14.7c0.3,0.2,0.6,0.3,0.9,0.5c2.5-3.4,5.3-6.7,7.9-10c7-9.1,13-17.9,20.7-25.5
		c7.1-6.9,14.5-39.4,18.3-48.1c17.1,6.4,25,1,41.4,9.2c9.4,4.7,28.4,14.7,45.7,22.2c11.3,4.9,24.5,6.4,25,13c0,0,0,0.1,0,0.1
		c5.6,12.8,18.2,21.1,7.5,35.9c-6.2,8.7-15.7,9.9-18.7,21.5c-2.8,10.9,0.1,21.3-8.5,30c-4.7,4.8-12.3,6.7-19.4,9.5
		c0.1,0.1,0.3,0.1,0.4,0.1C308.5,442.9,324.4,441.8,336.9,444.7z"/>
	<path class="st33" d="M167.6,369.7c-3.3-1.8-10.5-4.3-16.8-6.4c-1.6,0.4-3.4,0.7-5.2,1.1c-2.8,2-5.7,5.5-9,8.8
		c-10.1,10.1-19.2,18.4-14.4,24.6c11,14.3,36.4,19.1,50.8,24.8c6.1-8.2,5.2-17.4,8.4-26.1c1.5-4.1,3.9-7.9,6.7-11.6
		c-0.3-0.2-0.6-0.4-0.9-0.5C187.1,384.4,173,372.6,167.6,369.7z"/>
	<path class="st34" d="M167.6,369.7c-3.3-1.8-10.5-4.3-16.8-6.4c-1.6,0.4-3.4,0.7-5.2,1.1c-2.8,2-5.7,5.5-9,8.8
		c-10.1,10.1-19.2,18.4-14.4,24.6c11,14.3,36.4,19.1,50.8,24.8c6.1-8.2,5.2-17.4,8.4-26.1c1.5-4.1,3.9-7.9,6.7-11.6
		c-0.3-0.2-0.6-0.4-0.9-0.5C187.1,384.4,173,372.6,167.6,369.7z"/>
	<path class="st33" d="M293.3,480.1c17.1,9.6,38.8,18.7,56.5,27.1c4.8-4.9,8.9-12.3,8.8-18.4c-0.1-4.9-3.4-10.7-5-15.7
		c-1.8-5.9-4-13.8-1.1-16.9c0.8-0.8,1.9-1.4,3.3-1.8c-5.4-3.9-12.4-8.1-19-9.7c-12.5-2.9-28.4-1.9-28.4-1.9
		c-0.1-0.1-0.3-0.1-0.4-0.1c-0.7,0.3-1.4,0.6-2.1,0.9C301.9,455.7,297.9,467.8,293.3,480.1z"/>
	<path class="st34" d="M293.3,480.1c17.1,9.6,38.8,18.7,56.5,27.1c4.8-4.9,8.9-12.3,8.8-18.4c-0.1-4.9-3.4-10.7-5-15.7
		c-1.8-5.9-4-13.8-1.1-16.9c0.8-0.8,1.9-1.4,3.3-1.8c-5.4-3.9-12.4-8.1-19-9.7c-12.5-2.9-28.4-1.9-28.4-1.9
		c-0.1-0.1-0.3-0.1-0.4-0.1c-0.7,0.3-1.4,0.6-2.1,0.9C301.9,455.7,297.9,467.8,293.3,480.1z"/>
	<path class="st35" d="M7.1,328.9c11.5,6.6,49,30.6,49,30.6l373.8,182.3l42.1,16.1c0,0-12.3,6.9-16.9,7.7
		c-8.3,1.4-25.7-0.4-33.7-3.1c-86.8-37-357.7-174.6-357.7-174.6s-41.9-23-53.6-33.7c-4.2-3.9-11.5-15.1-10-20.7
		C0.8,331.5,5.3,327.9,7.1,328.9z"/>
</g>
</svg>
